<svg xmlns="http://www.w3.org/2000/svg" width="361.562" height="89.12" viewBox="0 0 361.562 89.12">
  <g id="Brackets" transform="translate(-17 -406.903)" opacity="0.65">
    <path id="Clip-33" d="M10.4,0a13.461,13.461,0,0,1,4.624.808,9.857,9.857,0,0,1,3.9,2.609,12.75,12.75,0,0,1,2.646,4.567,20.322,20.322,0,0,1,.966,6.673v17.26a5.369,5.369,0,0,0,1.249,3.712,8.01,8.01,0,0,0,2.94,2.108,12.772,12.772,0,0,0,3.417.9,26.121,26.121,0,0,0,2.792.2V50.28a25.546,25.546,0,0,0-2.792.2,12.774,12.774,0,0,0-3.417.9,8.076,8.076,0,0,0-2.94,2.108,5.381,5.381,0,0,0-1.249,3.716V74.565a20.393,20.393,0,0,1-.966,6.678,12.647,12.647,0,0,1-2.6,4.514,9.724,9.724,0,0,1-3.9,2.557,14.677,14.677,0,0,1-4.96.8H0V77.674H4.72a8.159,8.159,0,0,0,3.467-.6,4.517,4.517,0,0,0,1.876-1.557,4.848,4.848,0,0,0,.771-2.106,17.461,17.461,0,0,0,.146-2.158V55.1a13.065,13.065,0,0,1,.96-5.52A8.127,8.127,0,0,1,14.3,46.517a7.085,7.085,0,0,1,3.082-1.353c1.12-.2,2.2-.368,3.222-.5v-.2a29.708,29.708,0,0,1-3.222-.4A7.056,7.056,0,0,1,14.3,42.7a8.135,8.135,0,0,1-2.366-3.056,13.084,13.084,0,0,1-.96-5.523V17.868a17.35,17.35,0,0,0-.146-2.156,4.859,4.859,0,0,0-.771-2.111,4.515,4.515,0,0,0-1.876-1.557,8.155,8.155,0,0,0-3.467-.6H0V0Z" transform="translate(345.626 406.903)" fill="#fff" fill-rule="evenodd" opacity="0.24"/>
    <path id="Clip-33-2" data-name="Clip-33" d="M10.4,0a13.461,13.461,0,0,1,4.624.808,9.857,9.857,0,0,1,3.9,2.609,12.75,12.75,0,0,1,2.646,4.567,20.322,20.322,0,0,1,.966,6.673v17.26a5.369,5.369,0,0,0,1.249,3.712,8.01,8.01,0,0,0,2.94,2.108,12.772,12.772,0,0,0,3.417.9,26.122,26.122,0,0,0,2.792.2V50.28a25.546,25.546,0,0,0-2.792.2,12.774,12.774,0,0,0-3.417.9,8.075,8.075,0,0,0-2.94,2.108,5.381,5.381,0,0,0-1.249,3.716V74.565a20.393,20.393,0,0,1-.966,6.678,12.647,12.647,0,0,1-2.6,4.514,9.724,9.724,0,0,1-3.9,2.557,14.677,14.677,0,0,1-4.96.8H0V77.674H4.72a8.159,8.159,0,0,0,3.467-.6,4.517,4.517,0,0,0,1.876-1.557,4.848,4.848,0,0,0,.771-2.106,17.461,17.461,0,0,0,.146-2.158V55.1a13.065,13.065,0,0,1,.96-5.52A8.127,8.127,0,0,1,14.3,46.517a7.085,7.085,0,0,1,3.082-1.353c1.12-.2,2.2-.368,3.222-.5v-.2a29.708,29.708,0,0,1-3.222-.4A7.056,7.056,0,0,1,14.3,42.7a8.135,8.135,0,0,1-2.366-3.056,13.084,13.084,0,0,1-.96-5.523V17.868a17.35,17.35,0,0,0-.146-2.156,4.859,4.859,0,0,0-.771-2.111,4.515,4.515,0,0,0-1.876-1.557,8.155,8.155,0,0,0-3.467-.6H0V0Z" transform="translate(49.935 496.023) rotate(180)" fill="#fff" fill-rule="evenodd" opacity="0.24"/>
  </g>
</svg>
