<svg id="chat-svgrepo-com" xmlns="http://www.w3.org/2000/svg" width="74" height="74.015" viewBox="0 0 74 74.015">
  <path id="Path_11" data-name="Path 11" d="M51.807,0h-29.6A22.225,22.225,0,0,0,.007,22.2V39.465a22.225,22.225,0,0,0,22.2,22.2h2.2a31.964,31.964,0,0,1,22.75,9.423L49.467,73.4a2.093,2.093,0,0,0,3.573-1.48V61.63A22.228,22.228,0,0,0,74.007,39.465V22.2A22.224,22.224,0,0,0,51.807,0ZM71.54,39.465a19.741,19.741,0,0,1-18.5,19.67v-4.87a1.233,1.233,0,0,0-2.467,0V71.019L48.9,69.343A34.414,34.414,0,0,0,24.4,59.2h-2.2A19.756,19.756,0,0,1,2.474,39.465V22.2A19.756,19.756,0,0,1,22.207,2.467h29.6A19.756,19.756,0,0,1,71.54,22.2Z" transform="translate(-0.007)"/>
  <path id="Path_12" data-name="Path 12" d="M17.007,21a4,4,0,1,0,4,4A4,4,0,0,0,17.007,21Zm0,6a2,2,0,1,1,2-2A2,2,0,0,1,17.007,27Z" transform="translate(3.493 5.652)"/>
  <path id="Path_13" data-name="Path 13" d="M30.007,21a4,4,0,1,0,4,4A4,4,0,0,0,30.007,21Zm0,6a2,2,0,1,1,2-2A2,2,0,0,1,30.007,27Z" transform="translate(6.993 5.652)"/>
  <path id="Path_14" data-name="Path 14" d="M43.007,21a4,4,0,1,0,4,4A4,4,0,0,0,43.007,21Zm0,6a2,2,0,1,1,2-2A2,2,0,0,1,43.007,27Z" transform="translate(10.493 5.652)"/>
</svg>
