<svg id="Chat_Icon-Default" data-name="Chat Icon-Default" xmlns="http://www.w3.org/2000/svg" width="60" height="60.015" viewBox="0 0 60 60.015">
  <path id="Path_11" data-name="Path 11" d="M42.007,0h-24a18.021,18.021,0,0,0-18,18V32a18.021,18.021,0,0,0,18,18h1.781a25.916,25.916,0,0,1,18.446,7.641l1.876,1.876a1.7,1.7,0,0,0,2.9-1.2V49.973A18.023,18.023,0,0,0,60.007,32V18A18.02,18.02,0,0,0,42.007,0Zm16,32a16.007,16.007,0,0,1-15,15.949V44a1,1,0,0,0-2,0V57.586l-1.359-1.359A27.9,27.9,0,0,0,19.788,48H18.007a16.019,16.019,0,0,1-16-16V18a16.019,16.019,0,0,1,16-16h24a16.019,16.019,0,0,1,16,16Z" transform="translate(-0.007)" fill="#656fec"/>
  <path id="Path_12" data-name="Path 12" d="M17.007,21a4,4,0,1,0,4,4A4,4,0,0,0,17.007,21Zm0,6a2,2,0,1,1,2-2A2,2,0,0,1,17.007,27Z" transform="translate(-0.007)" fill="#656fec"/>
  <path id="Path_13" data-name="Path 13" d="M30.007,21a4,4,0,1,0,4,4A4,4,0,0,0,30.007,21Zm0,6a2,2,0,1,1,2-2A2,2,0,0,1,30.007,27Z" transform="translate(-0.007)" fill="#656fec"/>
  <path id="Path_14" data-name="Path 14" d="M43.007,21a4,4,0,1,0,4,4A4,4,0,0,0,43.007,21Zm0,6a2,2,0,1,1,2-2A2,2,0,0,1,43.007,27Z" transform="translate(-0.007)" fill="#656fec"/>
</svg>
