<svg xmlns="http://www.w3.org/2000/svg" width="360" height="92" viewBox="0 0 360 92">
  <g id="Purple_Bracket" data-name="Purple Bracket" transform="translate(-27 -375)" opacity="0.42">
    <path id="Clip-33" d="M10.444,0a13.193,13.193,0,0,1,4.644.834,9.889,9.889,0,0,1,3.921,2.694,13.252,13.252,0,0,1,2.658,4.715,21.518,21.518,0,0,1,.971,6.888V32.949a5.641,5.641,0,0,0,1.254,3.832,8.055,8.055,0,0,0,2.953,2.176,12.553,12.553,0,0,0,3.433.934,25.54,25.54,0,0,0,2.8.2V51.9a24.976,24.976,0,0,0-2.8.207,12.555,12.555,0,0,0-3.433.931,8.121,8.121,0,0,0-2.953,2.176,5.654,5.654,0,0,0-1.254,3.836V76.974a21.594,21.594,0,0,1-.971,6.894,13.148,13.148,0,0,1-2.608,4.66,9.748,9.748,0,0,1-3.921,2.639A14.38,14.38,0,0,1,10.157,92H0V80.184H4.741a8,8,0,0,0,3.482-.618,4.568,4.568,0,0,0,1.884-1.607,5.092,5.092,0,0,0,.775-2.174,18.518,18.518,0,0,0,.146-2.228V56.878a13.818,13.818,0,0,1,.964-5.7,8.365,8.365,0,0,1,2.374-3.16,7.022,7.022,0,0,1,3.1-1.4c1.125-.21,2.206-.38,3.237-.52v-.2a29.071,29.071,0,0,1-3.237-.417,6.994,6.994,0,0,1-3.1-1.4,8.372,8.372,0,0,1-2.376-3.154,13.838,13.838,0,0,1-.964-5.7V18.446a18.4,18.4,0,0,0-.146-2.225,5.1,5.1,0,0,0-.775-2.179,4.565,4.565,0,0,0-1.884-1.607,7.994,7.994,0,0,0-3.482-.618H0V0Z" transform="translate(353.919 375)" fill="#656fec" fill-rule="evenodd"/>
    <path id="Clip-33-2" data-name="Clip-33" d="M10.51,92a13.351,13.351,0,0,0,4.674-.834,9.953,9.953,0,0,0,3.945-2.694A13.23,13.23,0,0,0,21.8,83.758a21.393,21.393,0,0,0,.977-6.888V59.051a5.618,5.618,0,0,1,1.262-3.832,8.1,8.1,0,0,1,2.971-2.176,12.7,12.7,0,0,1,3.454-.934,25.861,25.861,0,0,1,2.822-.2V40.1a25.29,25.29,0,0,1-2.822-.207,12.7,12.7,0,0,1-3.454-.931,8.169,8.169,0,0,1-2.971-2.176,5.631,5.631,0,0,1-1.262-3.836V15.026A21.468,21.468,0,0,0,21.8,8.131a13.126,13.126,0,0,0-2.624-4.66A9.813,9.813,0,0,0,15.234.832,14.554,14.554,0,0,0,10.221,0H0V11.816H4.771a8.093,8.093,0,0,1,3.5.618,4.589,4.589,0,0,1,1.9,1.607,5.072,5.072,0,0,1,.78,2.174,18.4,18.4,0,0,1,.147,2.228v16.68a13.741,13.741,0,0,0,.97,5.7,8.37,8.37,0,0,0,2.389,3.16,7.088,7.088,0,0,0,3.116,1.4c1.132.21,2.22.38,3.257.52v.2a29.43,29.43,0,0,0-3.257.417,7.059,7.059,0,0,0-3.116,1.4,8.377,8.377,0,0,0-2.391,3.154,13.761,13.761,0,0,0-.97,5.7v16.78a18.286,18.286,0,0,1-.147,2.225,5.083,5.083,0,0,1-.78,2.179,4.587,4.587,0,0,1-1.9,1.607,8.09,8.09,0,0,1-3.5.618H0V92Z" transform="translate(60.29 467) rotate(180)" fill="#656fec" fill-rule="evenodd"/>
  </g>
</svg>
