<svg id="google-cloud-svgrepo-com-2" xmlns="http://www.w3.org/2000/svg" width="41.948" height="33.722" viewBox="0 0 41.948 33.722">
  <path id="Path_2562" data-name="Path 2562" d="M53.581,9.31l3.646-3.646.243-1.535a16.426,16.426,0,0,0-23.2,1.429,16.855,16.855,0,0,0-3.556,6.661l1.306-.184,7.292-1.2.563-.576A9.135,9.135,0,0,1,52.352,9.246Z" transform="translate(-25.684 0)" fill="#ea4335"/>
  <path id="Path_2563" data-name="Path 2563" d="M138.745,33.18a16.427,16.427,0,0,0-4.951-7.983l-5.118,5.118a9.1,9.1,0,0,1,3.339,7.216v.908a4.529,4.529,0,1,1,0,9.058h-9.122l-.9.972v5.463l.9.857h9.122a11.814,11.814,0,0,0,6.73-21.609" transform="translate(-102.008 -21.068)" fill="#4285f4"/>
  <path id="Path_2564" data-name="Path 2564" d="M35.375,166.494h9.109V159.2H35.375a4.469,4.469,0,0,1-1.868-.409l-1.292.4-3.672,3.646-.32,1.241a11.821,11.821,0,0,0,7.152,2.418" transform="translate(-23.599 -132.772)" fill="#34a853"/>
  <path id="Path_2565" data-name="Path 2565" d="M11.777,61.425A11.847,11.847,0,0,0,4.625,82.663l5.284-5.284a4.555,4.555,0,1,1,6.026-6.026l5.284-5.284a11.834,11.834,0,0,0-9.442-4.644" transform="translate(0 -51.36)" fill="#fbbc05"/>
</svg>
