<svg id="Icon_ionic-logo-instagram" data-name="Icon ionic-logo-instagram" xmlns="http://www.w3.org/2000/svg" width="23.556" height="24" viewBox="0 0 23.556 24">
  <path id="Path_2070" data-name="Path 2070" d="M21.186,6.5a4.854,4.854,0,0,1,3.466,1.469A5,5,0,0,1,26.093,11.5v10a5.04,5.04,0,0,1-1.442,3.531A4.819,4.819,0,0,1,21.186,26.5H11.371A4.854,4.854,0,0,1,7.9,25.031,5,5,0,0,1,6.463,21.5v-10A5.04,5.04,0,0,1,7.9,7.969,4.819,4.819,0,0,1,11.371,6.5h9.815m0-2H11.371a6.957,6.957,0,0,0-6.871,7v10a6.957,6.957,0,0,0,6.871,7h9.815a6.957,6.957,0,0,0,6.871-7v-10a6.957,6.957,0,0,0-6.871-7Z" transform="translate(-4.5 -4.5)" fill="#e1306c"/>
  <path id="Path_2071" data-name="Path 2071" d="M25.1,11.945a1.472,1.472,0,1,1,1.472-1.472A1.469,1.469,0,0,1,25.1,11.945Z" transform="translate(-6.939 -4.989)" fill="#e1306c"/>
  <path id="Path_2072" data-name="Path 2072" d="M17.139,13.287a4.077,4.077,0,1,1-3.926,4.074,4.006,4.006,0,0,1,3.926-4.074m0-2.037a6,6,0,0,0-5.889,6.111,6,6,0,0,0,5.889,6.111,6,6,0,0,0,5.889-6.111,6,6,0,0,0-5.889-6.111Z" transform="translate(-5.359 -5.36)" fill="#e1306c"/>
</svg>
