<svg xmlns="http://www.w3.org/2000/svg" width="25" height="24" viewBox="0 0 25 24">
  <g id="Icon_metro-linkedin" data-name="Icon metro-linkedin" transform="translate(0)">
    <path id="Icon_metro-linkedin-2" data-name="Icon metro-linkedin" d="M23.371,1.928H6.77a4.13,4.13,0,0,0-4.2,4.031V21.9a4.13,4.13,0,0,0,4.2,4.031h16.6a4.13,4.13,0,0,0,4.2-4.031V5.959a4.13,4.13,0,0,0-4.2-4.031Zm-11.426,19.5H8.821v-10.5h3.125v10.5Zm-1.562-12a1.5,1.5,0,1,1,1.562-1.5A1.532,1.532,0,0,1,10.383,9.428Zm12.5,12H19.758v-6a1.564,1.564,0,0,0-3.125,0v6H13.508v-10.5h3.125v1.863c.644-.85,1.63-1.863,2.734-1.863a3.638,3.638,0,0,1,3.516,3.75Z" transform="translate(-2.571 -1.928)" fill="#0073b1"/>
  </g>
</svg>
