<svg xmlns="http://www.w3.org/2000/svg" width="43.25" height="21.263" viewBox="0 0 43.25 21.263">
  <g id="Logo-_Black" data-name="Logo- Black" transform="translate(-16 -44)">
    <path id="Fill-35" d="M20.684,0l-.375,9.247L17.715,7.737l-2.852,4.907H7.4l-5,8.619L0,19.879,5.757,9.874h7.463l2.024-3.523L12.587,4.778Z" transform="translate(27.134 44)" fill="#95c13d" fill-rule="evenodd"/>
    <path id="path-1_00000145046301420574922560000013221811800469212591_" d="M7.892,0V2.818H6.749a2.529,2.529,0,0,0-.83.125,2.755,2.755,0,0,0-.445.376.825.825,0,0,0-.191.5,1.533,1.533,0,0,0-.063.5V8.074a3.359,3.359,0,0,1-.255,1.252,3.335,3.335,0,0,1-.573.689,3.926,3.926,0,0,1-.763.313,3.239,3.239,0,0,1-.763.129v.062a3.145,3.145,0,0,1,.763.062,1.647,1.647,0,0,1,.766.314,1.264,1.264,0,0,1,.573.689,2.309,2.309,0,0,1,.255,1.252v3.757c0,.188.063.313.063.5a.7.7,0,0,0,.191.5.656.656,0,0,0,.178.238.684.684,0,0,0,.267.139,2.529,2.529,0,0,0,.827.126H7.892v2.631H5.477a3.654,3.654,0,0,1-1.145-.188,2.522,2.522,0,0,1-.954-.626,2.985,2.985,0,0,1-.636-1.064,3.857,3.857,0,0,1-.255-1.566V13.275a1.227,1.227,0,0,0-.318-.877,1.8,1.8,0,0,0-.7-.5c-.255-.062-.573-.126-.827-.188A2.965,2.965,0,0,0,0,11.647V9.016c.127,0,.381-.062.636-.062a1.984,1.984,0,0,0,.827-.188,2.824,2.824,0,0,0,.7-.5,1.344,1.344,0,0,0,.318-.877V3.381a4.813,4.813,0,0,1,.191-1.5A3.4,3.4,0,0,1,3.314.815,1.956,1.956,0,0,1,4.268.188,3.758,3.758,0,0,1,5.476,0Z" transform="translate(16 44.266)" fill="#028d9a" fill-rule="evenodd"/>
    <path id="Clip-33" d="M0,0H2.5A3.163,3.163,0,0,1,3.568.188a2.476,2.476,0,0,1,.939.63A3.016,3.016,0,0,1,5.133,1.89a3.957,3.957,0,0,1,.251,1.574V7.5a1.25,1.25,0,0,0,.313.882,1.775,1.775,0,0,0,.688.5c.251.063.564.126.814.189a3.053,3.053,0,0,0,.688.063v2.645c-.185,0-.438.063-.688.063a1.724,1.724,0,0,0-.814.189,2.78,2.78,0,0,0-.688.5,1.37,1.37,0,0,0-.313.882v3.9A5.521,5.521,0,0,1,5.133,18.9a3.437,3.437,0,0,1-.626,1.072,2.355,2.355,0,0,1-.939.567,3.629,3.629,0,0,1-1.19.189H0V18.074H1.126a2.44,2.44,0,0,0,.814-.126,2.73,2.73,0,0,0,.438-.378,1.653,1.653,0,0,0,.188-.5,1.574,1.574,0,0,0,.062-.5V12.787a3.444,3.444,0,0,1,.251-1.26,2.094,2.094,0,0,1,.564-.693,1.922,1.922,0,0,1,.751-.315c.248-.062.5-.062.751-.126v-.063a3.03,3.03,0,0,1-.751-.063,1.37,1.37,0,0,1-.751-.315A1.264,1.264,0,0,1,2.88,9.26,2.369,2.369,0,0,1,2.629,8V4.223c0-.189-.062-.315-.062-.5a.718.718,0,0,0-.188-.5.649.649,0,0,0-.173-.239.677.677,0,0,0-.264-.142,2.44,2.44,0,0,0-.814-.126H0V.063Z" transform="translate(51.361 44.275)" fill="#028d9a" fill-rule="evenodd"/>
  </g>
</svg>
