<svg id="Parallax_Bracket" data-name="Parallax Bracket" xmlns="http://www.w3.org/2000/svg" width="360" height="92" viewBox="0 0 360 92">
  <g id="Brackets" transform="translate(-15.935 -406.903)" opacity="0.24">
    <path id="Clip-33" d="M10.734,0a13.9,13.9,0,0,1,4.774.834,10.176,10.176,0,0,1,4.03,2.694,13.162,13.162,0,0,1,2.732,4.715,20.979,20.979,0,0,1,1,6.888V32.949a5.542,5.542,0,0,0,1.289,3.832,8.269,8.269,0,0,0,3.035,2.176,13.184,13.184,0,0,0,3.528.934A26.965,26.965,0,0,0,34,40.1V51.9a26.372,26.372,0,0,0-2.882.207,13.186,13.186,0,0,0-3.528.931,8.337,8.337,0,0,0-3.035,2.176,5.555,5.555,0,0,0-1.289,3.836V76.974a21.052,21.052,0,0,1-1,6.894,13.055,13.055,0,0,1-2.68,4.66,10.038,10.038,0,0,1-4.03,2.639,15.151,15.151,0,0,1-5.12.831H0V80.184H4.873a8.423,8.423,0,0,0,3.579-.618,4.663,4.663,0,0,0,1.936-1.607,5,5,0,0,0,.8-2.174,18.025,18.025,0,0,0,.15-2.228V56.878a13.487,13.487,0,0,1,.991-5.7,8.39,8.39,0,0,1,2.44-3.16,7.314,7.314,0,0,1,3.182-1.4c1.156-.21,2.267-.38,3.327-.52v-.2a30.667,30.667,0,0,1-3.327-.417,7.284,7.284,0,0,1-3.182-1.4,8.4,8.4,0,0,1-2.442-3.154,13.507,13.507,0,0,1-.991-5.7V18.446a17.911,17.911,0,0,0-.15-2.225,5.016,5.016,0,0,0-.8-2.179A4.66,4.66,0,0,0,8.45,12.434a8.419,8.419,0,0,0-3.579-.618H0V0Z" transform="translate(341.935 406.903)" fill="#fff" fill-rule="evenodd"/>
    <path id="Clip-33-2" data-name="Clip-33" d="M10.734,0a13.9,13.9,0,0,1,4.774.834,10.176,10.176,0,0,1,4.03,2.694,13.162,13.162,0,0,1,2.732,4.715,20.979,20.979,0,0,1,1,6.888V32.949a5.542,5.542,0,0,0,1.289,3.832,8.269,8.269,0,0,0,3.035,2.176,13.184,13.184,0,0,0,3.528.934A26.966,26.966,0,0,0,34,40.1V51.9a26.372,26.372,0,0,0-2.882.207,13.187,13.187,0,0,0-3.528.931,8.336,8.336,0,0,0-3.035,2.176,5.555,5.555,0,0,0-1.289,3.836V76.974a21.052,21.052,0,0,1-1,6.894,13.055,13.055,0,0,1-2.68,4.66,10.038,10.038,0,0,1-4.03,2.639,15.151,15.151,0,0,1-5.12.831H0V80.184H4.873a8.422,8.422,0,0,0,3.579-.618,4.663,4.663,0,0,0,1.936-1.607,5,5,0,0,0,.8-2.174,18.025,18.025,0,0,0,.15-2.228V56.878a13.487,13.487,0,0,1,.991-5.7,8.39,8.39,0,0,1,2.44-3.16,7.314,7.314,0,0,1,3.182-1.4c1.156-.21,2.267-.38,3.327-.52v-.2a30.669,30.669,0,0,1-3.327-.417,7.284,7.284,0,0,1-3.182-1.4,8.4,8.4,0,0,1-2.442-3.154,13.507,13.507,0,0,1-.991-5.7V18.446a17.911,17.911,0,0,0-.15-2.225,5.016,5.016,0,0,0-.8-2.179A4.66,4.66,0,0,0,8.45,12.434a8.419,8.419,0,0,0-3.579-.618H0V0Z" transform="translate(49.935 498.903) rotate(180)" fill="#fff" fill-rule="evenodd"/>
  </g>
</svg>
