<svg id="Play_Icon" data-name="Play Icon" xmlns="http://www.w3.org/2000/svg" width="46" height="54" viewBox="0 0 46 54">
  <g id="Polygon_3" data-name="Polygon 3" transform="translate(46) rotate(90)" fill="none">
    <path d="M24.413,4.408a3,3,0,0,1,5.174,0L51.348,41.481A3,3,0,0,1,48.761,46H5.239a3,3,0,0,1-2.587-4.519Z" stroke="none"/>
    <path d="M 26.99999618530273 5.926506042480469 L 27 5.926502227783203 L 5.239471435546875 43.00000381469727 L 48.76052093505859 43.00000381469727 L 27 5.926513671875 C 26.99999809265137 5.926509857177734 26.99999809265137 5.926509857177734 26.99999618530273 5.926506042480469 M 27 2.926502227783203 C 28.0037841796875 2.926502227783203 29.00757026672363 3.420303344726562 29.58724975585938 4.407901763916016 L 51.34777069091797 41.48140335083008 C 52.52164077758789 43.4813232421875 51.07949829101562 46.00000381469727 48.76052856445312 46.00000381469727 L 5.239471435546875 46.00000381469727 C 2.920490264892578 46.00000381469727 1.478351593017578 43.4813232421875 2.6522216796875 41.48140335083008 L 24.41275024414062 4.407901763916016 C 24.99242973327637 3.420303344726562 25.9962158203125 2.926502227783203 27 2.926502227783203 Z" stroke="none" fill="#8b8b8b"/>
  </g>
</svg>
