<svg id="Play_Icon" data-name="Play Icon" xmlns="http://www.w3.org/2000/svg" width="51" height="60" viewBox="0 0 51 60">
  <g id="Polygon_3" data-name="Polygon 3" transform="translate(51) rotate(90)" fill="none">
    <path d="M27.414,4.4a3,3,0,0,1,5.172,0L57.341,46.479A3,3,0,0,1,54.755,51H5.245a3,3,0,0,1-2.586-4.521Z" stroke="none"/>
    <path d="M 29.9999942779541 5.916923522949219 L 5.245243072509766 48.00000381469727 C 5.245246887207031 48.00000381469727 5.245250701904297 48.00000381469727 5.245254516601562 48.00000381469727 L 54.75475311279297 48.00000381469727 L 30.00000381469727 5.916934967041016 C 30.00000190734863 5.91693115234375 30.00000190734863 5.916919708251953 29.9999942779541 5.916923522949219 M 29.9999942779541 2.916923522949219 C 31.00290870666504 2.916923522949219 32.00582122802734 3.409904479980469 32.5858039855957 4.395862579345703 L 57.34055328369141 46.47894287109375 C 58.51697540283203 48.47884368896484 57.07500457763672 51.00000381469727 54.75475311279297 51.00000381469727 L 5.245254516601562 51.00000381469727 C 2.925003051757812 51.00000381469727 1.4830322265625 48.47884368896484 2.659442901611328 46.47894287109375 L 27.41419219970703 4.395862579345703 C 27.99416732788086 3.409904479980469 28.9970817565918 2.916923522949219 29.9999942779541 2.916923522949219 Z" stroke="none" fill="#1c1b1a"/>
  </g>
</svg>
