<svg id="Techolution_Footer" data-name="Techolution Footer" xmlns="http://www.w3.org/2000/svg" xmlns:xlink="http://www.w3.org/1999/xlink" width="366.974" height="65.039" viewBox="0 0 366.974 65.039">
  <defs>
    <clipPath id="clip-path">
      <rect id="Rectangle_159" data-name="Rectangle 159" width="285.896" height="65.039"/>
    </clipPath>
  </defs>
  <g id="Text_Logo" data-name="Text Logo" transform="translate(81.078)" clip-path="url(#clip-path)">
    <path id="Path_132" data-name="Path 132" d="M0,19.789V14.447H5.285V7.166h6.409v7.281h7.05v5.342h-7.05v11a5.389,5.389,0,0,0,.72,2.986q.719,1.1,2.857,1.1a10.65,10.65,0,0,0,1.869-.183,3.966,3.966,0,0,0,1.6-.6v5.292a8.377,8.377,0,0,1-2.484.655,21.331,21.331,0,0,1-2.59.183,13.368,13.368,0,0,1-4.192-.55,5.541,5.541,0,0,1-2.563-1.677,6.308,6.308,0,0,1-1.282-2.8,19.314,19.314,0,0,1-.348-3.877V19.789Z" transform="translate(0 0.011)" fill-rule="evenodd"/>
    <path id="Path_133" data-name="Path 133" d="M28.794,29.209a6.335,6.335,0,0,0,2.243,4.4,7.1,7.1,0,0,0,4.646,1.571,7.758,7.758,0,0,0,4.032-.969,11.115,11.115,0,0,0,2.858-2.436l4.592,3.405a12.96,12.96,0,0,1-5.02,3.876,15.04,15.04,0,0,1-5.821,1.154,15.654,15.654,0,0,1-5.448-.943A13.112,13.112,0,0,1,26.444,36.6a12.678,12.678,0,0,1-2.964-4.164,13.079,13.079,0,0,1-1.095-5.422,13.077,13.077,0,0,1,1.095-5.421,12.668,12.668,0,0,1,2.964-4.164,13.1,13.1,0,0,1,4.432-2.671,15.654,15.654,0,0,1,5.448-.943,12.651,12.651,0,0,1,4.885.915A10.477,10.477,0,0,1,45,17.37a12.153,12.153,0,0,1,2.457,4.27,17.757,17.757,0,0,1,.881,5.843v1.729Zm13.137-4.715a5.862,5.862,0,0,0-1.764-4.374,6.688,6.688,0,0,0-4.753-1.6,6.3,6.3,0,0,0-4.566,1.624,7.188,7.188,0,0,0-2.055,4.348Z" transform="translate(0.098 0.021)" fill-rule="evenodd"/>
    <path id="Path_134" data-name="Path 134" d="M71.7,21.98a10.186,10.186,0,0,0-2.349-1.834,5.127,5.127,0,0,0-2.511-.681,7.575,7.575,0,0,0-3.151.629,7.454,7.454,0,0,0-2.376,1.677,7.074,7.074,0,0,0-1.5,2.409,8.143,8.143,0,0,0,0,5.657,7.074,7.074,0,0,0,1.5,2.409,7.454,7.454,0,0,0,2.376,1.677,7.575,7.575,0,0,0,3.151.629,6.461,6.461,0,0,0,2.776-.6,6.025,6.025,0,0,0,2.189-1.755l4.273,4.5a9.857,9.857,0,0,1-2.217,1.624,15.247,15.247,0,0,1-2.534,1.1,15.7,15.7,0,0,1-2.457.6,13.509,13.509,0,0,1-2.03.183,15.665,15.665,0,0,1-5.448-.942A13.124,13.124,0,0,1,56.965,36.6,12.687,12.687,0,0,1,54,32.432a13.074,13.074,0,0,1-1.095-5.421A13.071,13.071,0,0,1,54,21.59a12.687,12.687,0,0,1,2.964-4.164A13.124,13.124,0,0,1,61.4,14.753a15.642,15.642,0,0,1,5.448-.942,14.183,14.183,0,0,1,4.941.913,11.25,11.25,0,0,1,4.352,2.907Z" transform="translate(0.231 0.021)" fill-rule="evenodd"/>
    <path id="Path_135" data-name="Path 135" d="M86.221,17.967h.106a7.388,7.388,0,0,1,2.645-2.855,8.544,8.544,0,0,1,4.886-1.281,10.213,10.213,0,0,1,4.352.838,8,8,0,0,1,4.513,5.343,14.218,14.218,0,0,1,.481,3.72V39.6H96.795V26.873q0-1.049-.106-2.332a8.252,8.252,0,0,0-.561-2.409,4.52,4.52,0,0,0-1.415-1.886,4.108,4.108,0,0,0-2.616-.759,6.214,6.214,0,0,0-2.7.524,5.16,5.16,0,0,0-1.816,1.414,5.6,5.6,0,0,0-1.041,2.043,8.958,8.958,0,0,0-.321,2.409V39.6H79.812V0h6.409Z" transform="translate(0.349)" fill-rule="evenodd"/>
    <path id="Path_136" data-name="Path 136" d="M109.057,27.008a13.074,13.074,0,0,1,1.095-5.421,12.657,12.657,0,0,1,2.964-4.164,13.115,13.115,0,0,1,4.432-2.672,16.212,16.212,0,0,1,10.9,0,13.115,13.115,0,0,1,4.432,2.672,12.658,12.658,0,0,1,2.964,4.164,13.091,13.091,0,0,1,1.1,5.421,13.091,13.091,0,0,1-1.1,5.421,12.658,12.658,0,0,1-2.964,4.164,13.115,13.115,0,0,1-4.432,2.672,16.212,16.212,0,0,1-10.9,0,13.115,13.115,0,0,1-4.432-2.672,12.657,12.657,0,0,1-2.964-4.164,13.074,13.074,0,0,1-1.095-5.421m6.409,0a8.053,8.053,0,0,0,.507,2.829,7.078,7.078,0,0,0,1.5,2.409,7.44,7.44,0,0,0,2.376,1.676,8.212,8.212,0,0,0,6.3,0,7.451,7.451,0,0,0,2.376-1.676,7.091,7.091,0,0,0,1.495-2.409,8.123,8.123,0,0,0,0-5.658,7.072,7.072,0,0,0-1.495-2.409,7.454,7.454,0,0,0-2.376-1.677,8.212,8.212,0,0,0-6.3,0,7.443,7.443,0,0,0-2.376,1.677,7.059,7.059,0,0,0-1.5,2.409,8.044,8.044,0,0,0-.507,2.828" transform="translate(0.477 0.021)" fill-rule="evenodd"/>
    <rect id="Rectangle_156" data-name="Rectangle 156" width="6.409" height="39.601" transform="translate(143.501)"/>
    <path id="Path_137" data-name="Path 137" d="M179.986,39.577H173.9V35.546h-.105a8.865,8.865,0,0,1-2.776,3.274,8.329,8.329,0,0,1-5.073,1.388,10.5,10.5,0,0,1-4.354-.811,7.824,7.824,0,0,1-2.911-2.2,8.5,8.5,0,0,1-1.6-3.169,14.266,14.266,0,0,1-.481-3.72V14.436H163V27.164q0,1.047.106,2.332a8.253,8.253,0,0,0,.561,2.409,4.6,4.6,0,0,0,1.387,1.886,4.086,4.086,0,0,0,2.643.759,6.207,6.207,0,0,0,2.7-.524,5.166,5.166,0,0,0,1.817-1.414,5.6,5.6,0,0,0,1.041-2.043,8.946,8.946,0,0,0,.32-2.409V14.436h6.409Z" transform="translate(0.685 0.022)" fill-rule="evenodd"/>
    <path id="Path_138" data-name="Path 138" d="M184.139,19.789V14.447h5.286V7.166h6.409v7.281h7.051v5.342h-7.051v11a5.4,5.4,0,0,0,.719,2.986q.72,1.1,2.856,1.1a10.652,10.652,0,0,0,1.87-.183,3.966,3.966,0,0,0,1.6-.6v5.292a8.378,8.378,0,0,1-2.484.655,21.315,21.315,0,0,1-2.589.183,13.357,13.357,0,0,1-4.191-.55,5.542,5.542,0,0,1-2.565-1.677,6.308,6.308,0,0,1-1.282-2.8,19.313,19.313,0,0,1-.348-3.877V19.789Z" transform="translate(0.806 0.011)" fill-rule="evenodd"/>
    <rect id="Rectangle_157" data-name="Rectangle 157" width="6.409" height="25.141" transform="translate(208.924 14.458)"/>
    <path id="Path_139" data-name="Path 139" d="M207.109,5.914a3.584,3.584,0,0,1,1.149-2.645,3.984,3.984,0,0,1,2.911-1.128,4.29,4.29,0,0,1,2.964,1.076,3.467,3.467,0,0,1,1.2,2.7,3.466,3.466,0,0,1-1.2,2.7,4.29,4.29,0,0,1-2.964,1.076,3.98,3.98,0,0,1-2.911-1.128,3.583,3.583,0,0,1-1.149-2.646" transform="translate(0.906 0.003)" fill-rule="evenodd"/>
    <path id="Path_140" data-name="Path 140" d="M220.455,27.008a13.075,13.075,0,0,1,1.1-5.421,12.657,12.657,0,0,1,2.964-4.164,13.115,13.115,0,0,1,4.432-2.672,16.212,16.212,0,0,1,10.9,0,13.114,13.114,0,0,1,4.432,2.672,12.658,12.658,0,0,1,2.964,4.164,13.092,13.092,0,0,1,1.1,5.421,13.092,13.092,0,0,1-1.1,5.421,12.658,12.658,0,0,1-2.964,4.164,13.114,13.114,0,0,1-4.432,2.672,16.212,16.212,0,0,1-10.9,0,13.115,13.115,0,0,1-4.432-2.672,12.657,12.657,0,0,1-2.964-4.164,13.075,13.075,0,0,1-1.1-5.421m6.409,0a8.032,8.032,0,0,0,.508,2.829,7.079,7.079,0,0,0,1.5,2.409,7.425,7.425,0,0,0,2.376,1.676,8.212,8.212,0,0,0,6.3,0,7.451,7.451,0,0,0,2.376-1.676,7.091,7.091,0,0,0,1.495-2.409,8.123,8.123,0,0,0,0-5.658,7.072,7.072,0,0,0-1.495-2.409,7.454,7.454,0,0,0-2.376-1.677,8.212,8.212,0,0,0-6.3,0,7.448,7.448,0,0,0-2.375,1.676,7.072,7.072,0,0,0-1.495,2.409,8.032,8.032,0,0,0-.509,2.829Z" transform="translate(0.964 0.021)" fill-rule="evenodd"/>
    <path id="Path_141" data-name="Path 141" d="M254.168,14.436h6.089V18.47h.106a8.857,8.857,0,0,1,2.775-3.275,8.335,8.335,0,0,1,5.075-1.388,10.212,10.212,0,0,1,4.352.838,8,8,0,0,1,4.513,5.343,14.175,14.175,0,0,1,.481,3.72v15.87h-6.407V26.851q0-1.047-.106-2.332a8.188,8.188,0,0,0-.561-2.409,4.51,4.51,0,0,0-1.414-1.886,4.112,4.112,0,0,0-2.617-.759,6.207,6.207,0,0,0-2.7.524,5.167,5.167,0,0,0-1.817,1.414,5.6,5.6,0,0,0-1.04,2.043,8.958,8.958,0,0,0-.32,2.409V39.578h-6.409Z" transform="translate(1.112 0.021)" fill-rule="evenodd"/>
    <rect id="Rectangle_158" data-name="Rectangle 158" width="2.217" height="12.77" transform="translate(81.877 48.533)"/>
    <path id="Path_142" data-name="Path 142" d="M89.591,51.734l.062,1.1a3.423,3.423,0,0,1,2.77-1.272q2.972,0,3.026,3.394v6.272H93.312V55.076a1.95,1.95,0,0,0-.392-1.338,1.65,1.65,0,0,0-1.28-.435,2.061,2.061,0,0,0-1.926,1.167v6.754H87.577v-9.49Z" transform="translate(0.383 0.079)"/>
    <path id="Path_143" data-name="Path 143" d="M100.929,51.734l.061,1.1a3.427,3.427,0,0,1,2.771-1.272q2.974,0,3.026,3.394v6.272h-2.138V55.076a1.95,1.95,0,0,0-.392-1.338,1.646,1.646,0,0,0-1.28-.435,2.063,2.063,0,0,0-1.926,1.167v6.754H98.914v-9.49Z" transform="translate(0.433 0.079)"/>
    <path id="Path_144" data-name="Path 144" d="M109.884,56.391a5.576,5.576,0,0,1,.554-2.512A4.024,4.024,0,0,1,112,52.16a4.393,4.393,0,0,1,2.3-.6,4.159,4.159,0,0,1,3.127,1.237,4.86,4.86,0,0,1,1.3,3.28l.009.5a5.644,5.644,0,0,1-.54,2.509,4,4,0,0,1-1.549,1.711,4.436,4.436,0,0,1-2.327.6,4.13,4.13,0,0,1-3.223-1.337,5.112,5.112,0,0,1-1.209-3.565Zm2.137.184a3.813,3.813,0,0,0,.607,2.293,1.974,1.974,0,0,0,1.688.829A1.953,1.953,0,0,0,116,58.856a4.221,4.221,0,0,0,.6-2.465,3.771,3.771,0,0,0-.62-2.28,2.093,2.093,0,0,0-3.347-.013,4.132,4.132,0,0,0-.616,2.478" transform="translate(0.481 0.079)"/>
    <path id="Path_145" data-name="Path 145" d="M125.085,58.523l2.015-6.788h2.208l-3.3,9.489h-1.856l-3.324-9.489h2.217Z" transform="translate(0.529 0.079)"/>
    <path id="Path_146" data-name="Path 146" d="M137.516,61.224a3.276,3.276,0,0,1-.246-.886,3.33,3.33,0,0,1-2.5,1.062,3.364,3.364,0,0,1-2.339-.815,2.607,2.607,0,0,1-.906-2.017,2.691,2.691,0,0,1,1.131-2.329,5.486,5.486,0,0,1,3.232-.812h1.31V54.8a1.658,1.658,0,0,0-.413-1.18,1.64,1.64,0,0,0-1.257-.443,1.888,1.888,0,0,0-1.2.364,1.123,1.123,0,0,0-.466.925h-2.137a2.358,2.358,0,0,1,.519-1.46,3.445,3.445,0,0,1,1.411-1.066,4.97,4.97,0,0,1,1.992-.386,4,4,0,0,1,2.666.837,2.981,2.981,0,0,1,1.02,2.355v4.281a4.852,4.852,0,0,0,.361,2.044v.148Zm-2.348-1.534a2.447,2.447,0,0,0,1.192-.307,2.038,2.038,0,0,0,.839-.824v-1.79h-1.151a3.162,3.162,0,0,0-1.786.413,1.336,1.336,0,0,0-.6,1.167,1.247,1.247,0,0,0,.409.978,1.591,1.591,0,0,0,1.1.364" transform="translate(0.575 0.079)"/>
    <path id="Path_147" data-name="Path 147" d="M145.577,49.431v2.307h1.68v1.578h-1.68v5.3a1.157,1.157,0,0,0,.216.784,1,1,0,0,0,.769.241,3.267,3.267,0,0,0,.748-.088V61.2a5.259,5.259,0,0,1-1.408.2q-2.463,0-2.463-2.71V53.316h-1.566V51.738h1.566V49.431Z" transform="translate(0.621 0.075)"/>
    <path id="Path_148" data-name="Path 148" d="M150.226,49.275a1.128,1.128,0,0,1,.312-.815,1.181,1.181,0,0,1,.892-.326,1.2,1.2,0,0,1,.9.326,1.118,1.118,0,0,1,.316.815,1.1,1.1,0,0,1-.316.8,1.206,1.206,0,0,1-.9.319,1.19,1.19,0,0,1-.892-.319,1.106,1.106,0,0,1-.312-.8m2.269,11.955h-2.137v-9.49h2.137Z" transform="translate(0.657 0.073)"/>
    <path id="Path_149" data-name="Path 149" d="M155.766,56.391a5.589,5.589,0,0,1,.554-2.512,4.037,4.037,0,0,1,1.557-1.72,4.4,4.4,0,0,1,2.305-.6,4.161,4.161,0,0,1,3.127,1.237,4.86,4.86,0,0,1,1.3,3.28l.009.5a5.63,5.63,0,0,1-.541,2.509,4,4,0,0,1-1.548,1.711,4.438,4.438,0,0,1-2.327.6,4.133,4.133,0,0,1-3.224-1.337,5.112,5.112,0,0,1-1.209-3.565Zm2.137.184a3.82,3.82,0,0,0,.607,2.293,1.976,1.976,0,0,0,1.689.829,1.952,1.952,0,0,0,1.684-.842,4.214,4.214,0,0,0,.6-2.465,3.764,3.764,0,0,0-.62-2.28,2.093,2.093,0,0,0-3.347-.013,4.132,4.132,0,0,0-.616,2.478" transform="translate(0.681 0.079)"/>
    <path id="Path_150" data-name="Path 150" d="M169.722,51.734l.062,1.1a3.423,3.423,0,0,1,2.769-1.272q2.974,0,3.026,3.394v6.272h-2.137V55.076a1.95,1.95,0,0,0-.392-1.338,1.647,1.647,0,0,0-1.28-.435,2.063,2.063,0,0,0-1.926,1.167v6.754h-2.137v-9.49Z" transform="translate(0.734 0.079)"/>
    <path id="Path_151" data-name="Path 151" d="M184.507,56.415a5.632,5.632,0,0,1,1.02-3.521,3.274,3.274,0,0,1,2.735-1.328,3.107,3.107,0,0,1,2.446,1.052V47.759h2.137V61.231h-1.934l-.105-.981a3.158,3.158,0,0,1-2.56,1.157,3.251,3.251,0,0,1-2.7-1.342,5.835,5.835,0,0,1-1.034-3.649m2.137.184a3.937,3.937,0,0,0,.559,2.258,1.812,1.812,0,0,0,1.587.811,2.017,2.017,0,0,0,1.917-1.167V54.45a1.99,1.99,0,0,0-1.9-1.14,1.827,1.827,0,0,0-1.6.82,4.385,4.385,0,0,0-.563,2.469" transform="translate(0.807 0.073)"/>
    <path id="Path_152" data-name="Path 152" d="M195.994,56.391a5.589,5.589,0,0,1,.554-2.512,4.037,4.037,0,0,1,1.557-1.72,4.4,4.4,0,0,1,2.305-.6,4.161,4.161,0,0,1,3.127,1.237,4.86,4.86,0,0,1,1.3,3.28l.009.5a5.63,5.63,0,0,1-.541,2.509,4,4,0,0,1-1.548,1.711,4.439,4.439,0,0,1-2.327.6,4.133,4.133,0,0,1-3.224-1.337,5.112,5.112,0,0,1-1.209-3.565Zm2.137.184a3.82,3.82,0,0,0,.607,2.293,1.976,1.976,0,0,0,1.689.829,1.952,1.952,0,0,0,1.684-.842,4.214,4.214,0,0,0,.6-2.465,3.764,3.764,0,0,0-.62-2.28,2.093,2.093,0,0,0-3.347-.013,4.133,4.133,0,0,0-.616,2.478" transform="translate(0.857 0.079)"/>
    <path id="Path_153" data-name="Path 153" d="M209.95,51.734l.062,1.1a3.425,3.425,0,0,1,2.77-1.272q2.974,0,3.026,3.394v6.272h-2.137V55.076a1.95,1.95,0,0,0-.392-1.338A1.647,1.647,0,0,0,212,53.3a2.061,2.061,0,0,0-1.926,1.167v6.754h-2.137v-9.49Z" transform="translate(0.91 0.079)"/>
    <path id="Path_154" data-name="Path 154" d="M223.5,61.4a4.43,4.43,0,0,1-3.293-1.275,4.623,4.623,0,0,1-1.263-3.4v-.263a5.663,5.663,0,0,1,.55-2.539,4.174,4.174,0,0,1,1.543-1.742,4.093,4.093,0,0,1,2.217-.622,3.742,3.742,0,0,1,3,1.236,5.225,5.225,0,0,1,1.06,3.5v.86H221.1a2.845,2.845,0,0,0,.787,1.859,2.369,2.369,0,0,0,1.738.685,2.9,2.9,0,0,0,2.392-1.185l1.152,1.1a3.85,3.85,0,0,1-1.526,1.32,4.8,4.8,0,0,1-2.142.469m-.255-8.13a1.8,1.8,0,0,0-1.42.614,3.189,3.189,0,0,0-.691,1.711H225.2v-.158a2.585,2.585,0,0,0-.572-1.617,1.789,1.789,0,0,0-1.39-.549" transform="translate(0.958 0.079)"/>
    <path id="Path_155" data-name="Path 155" d="M241.1,53.681a5.264,5.264,0,0,0-.87-.07,1.961,1.961,0,0,0-1.98,1.123v6.49h-2.137V51.734h2.04l.053,1.061a2.409,2.409,0,0,1,2.146-1.236,2.018,2.018,0,0,1,.756.122Z" transform="translate(1.033 0.079)"/>
    <path id="Path_156" data-name="Path 156" d="M243.794,49.275a1.124,1.124,0,0,1,.312-.815,1.181,1.181,0,0,1,.893-.326,1.2,1.2,0,0,1,.9.326,1.115,1.115,0,0,1,.317.815,1.094,1.094,0,0,1-.317.8,1.2,1.2,0,0,1-.9.319,1.189,1.189,0,0,1-.893-.319,1.1,1.1,0,0,1-.312-.8m2.269,11.955h-2.137v-9.49h2.137Z" transform="translate(1.066 0.073)"/>
    <path id="Path_157" data-name="Path 157" d="M249.361,56.409a5.546,5.546,0,0,1,1.042-3.53,3.351,3.351,0,0,1,2.767-1.319,3.136,3.136,0,0,1,2.559,1.132l.1-.957h1.926v9.2a3.812,3.812,0,0,1-1.166,2.946,4.439,4.439,0,0,1-3.144,1.079,5.076,5.076,0,0,1-2.045-.434,3.629,3.629,0,0,1-1.518-1.136l1.011-1.28a3.058,3.058,0,0,0,2.428,1.166A2.369,2.369,0,0,0,255,62.7a2.2,2.2,0,0,0,.616-1.689v-.641a3.148,3.148,0,0,1-2.463,1.027,3.343,3.343,0,0,1-2.731-1.324,5.716,5.716,0,0,1-1.06-3.667m2.128.184a3.806,3.806,0,0,0,.585,2.249,1.884,1.884,0,0,0,1.623.82,2.059,2.059,0,0,0,1.917-1.1V54.383a2.029,2.029,0,0,0-1.9-1.079,1.891,1.891,0,0,0-1.641.833,4.264,4.264,0,0,0-.585,2.456" transform="translate(1.091 0.079)"/>
    <path id="Path_158" data-name="Path 158" d="M263.369,52.775a3.35,3.35,0,0,1,2.649-1.21q3.042,0,3.086,3.464v6.2h-2.137V55.108a1.875,1.875,0,0,0-.427-1.391,1.749,1.749,0,0,0-1.253-.408,2.061,2.061,0,0,0-1.917,1.141V61.23h-2.137V47.758h2.137Z" transform="translate(1.143 0.073)"/>
    <path id="Path_159" data-name="Path 159" d="M275.266,49.431v2.307h1.68v1.578h-1.68v5.3a1.157,1.157,0,0,0,.216.784,1,1,0,0,0,.769.241,3.267,3.267,0,0,0,.748-.088V61.2a5.259,5.259,0,0,1-1.408.2q-2.463,0-2.463-2.71V53.316h-1.566V51.738h1.566V49.431Z" transform="translate(1.188 0.075)"/>
  </g>
  <g id="Logo" transform="translate(0 7.765)">
    <path id="Fill-35" d="M39.48,7.363l3.964,2.422-3.02,5.426H29.288L20.7,30.616l3.586,2.132,7.455-13.273H42.877l4.247-7.557,3.869,2.325L51.559,0Z" transform="translate(-3.256)" fill="#95c13d" fill-rule="evenodd"/>
    <path id="path-1_00000145046301420574922560000013221811800469212591_" d="M10.262,1.8a5.442,5.442,0,0,0-1.8.29,2.913,2.913,0,0,0-1.424.965A5.281,5.281,0,0,0,6.086,4.7,7.65,7.65,0,0,0,5.8,7.011v6.176a2.113,2.113,0,0,1-.475,1.351,4.218,4.218,0,0,1-1.044.772,2.882,2.882,0,0,1-1.234.29c-.38,0-.759.1-.949.1V19.75a4.288,4.288,0,0,1,.949.1c.38.1.854.193,1.234.29a2.694,2.694,0,0,1,1.044.772A1.928,1.928,0,0,1,5.8,22.259v6.176a6.122,6.122,0,0,0,.38,2.413,4.634,4.634,0,0,0,.949,1.641,3.751,3.751,0,0,0,1.424.965,5.294,5.294,0,0,0,1.708.29h3.606V29.69H12.16a3.662,3.662,0,0,1-1.234-.193,1.009,1.009,0,0,1-.664-.579,1.106,1.106,0,0,1-.285-.772c0-.29-.095-.483-.095-.772v-5.79a3.658,3.658,0,0,0-.38-1.93,1.934,1.934,0,0,0-.854-1.062,2.415,2.415,0,0,0-1.139-.483,4.546,4.546,0,0,0-1.139-.1v-.1a4.692,4.692,0,0,0,1.139-.193,5.753,5.753,0,0,0,1.139-.483A5.1,5.1,0,0,0,9.5,16.179a5.326,5.326,0,0,0,.38-1.93V8.459a2.436,2.436,0,0,1,.095-.772,1.3,1.3,0,0,1,.285-.772,4.148,4.148,0,0,1,.664-.579,3.662,3.662,0,0,1,1.234-.193h1.708V1.8Z" transform="translate(-2.1 -1.403)" fill="#028d9a" fill-rule="evenodd"/>
    <path id="Clip-33" d="M62.2,1.8V5.875h1.681a3.533,3.533,0,0,1,1.214.194,1,1,0,0,1,.654.583,1.128,1.128,0,0,1,.28.777c0,.291.093.485.093.777v5.825a3.749,3.749,0,0,0,.374,1.942,1.938,1.938,0,0,0,.841,1.068,2.011,2.011,0,0,0,1.121.485,4.379,4.379,0,0,0,1.121.1v.1c-.374.1-.747.1-1.121.194a2.818,2.818,0,0,0-1.121.485,3.21,3.21,0,0,0-.841,1.068,5.462,5.462,0,0,0-.374,1.942v5.825a2.5,2.5,0,0,1-.093.777,2.6,2.6,0,0,1-.28.777,4.111,4.111,0,0,1-.654.583,3.533,3.533,0,0,1-1.214.194H62.2v4.078h3.549a5.25,5.25,0,0,0,1.775-.291,3.5,3.5,0,0,0,1.4-.874,5.342,5.342,0,0,0,.934-1.651,8.77,8.77,0,0,0,.374-2.427V22.38a2.156,2.156,0,0,1,.467-1.359,4.158,4.158,0,0,1,1.027-.777,2.505,2.505,0,0,1,1.214-.291c.374,0,.747-.1,1.027-.1V15.778a4.414,4.414,0,0,1-1.027-.1c-.374-.1-.841-.194-1.214-.291a2.656,2.656,0,0,1-1.027-.777,1.966,1.966,0,0,1-.467-1.359V7.04a6.284,6.284,0,0,0-.374-2.427,4.687,4.687,0,0,0-.934-1.651,3.69,3.69,0,0,0-1.4-.971A4.583,4.583,0,0,0,65.936,1.7H62.2Z" transform="translate(-7.748 -1.29)" fill="#028d9a" fill-rule="evenodd"/>
  </g>
</svg>
