<svg xmlns="http://www.w3.org/2000/svg" xmlns:xlink="http://www.w3.org/1999/xlink" width="510.164" height="116.058" viewBox="0 0 510.164 116.058">
  <defs>
    <clipPath id="clip-path">
      <rect id="Rectangle_159" data-name="Rectangle 159" width="510.164" height="116.058"/>
    </clipPath>
  </defs>
  <g id="Text_Logo" data-name="Text Logo" clip-path="url(#clip-path)">
    <path id="Path_132" data-name="Path 132" d="M0,29.691V20.159H9.431V7.166H20.867V20.159h12.58v9.533H20.867V49.323a9.616,9.616,0,0,0,1.285,5.328q1.282,1.962,5.1,1.962a19,19,0,0,0,3.335-.327,7.077,7.077,0,0,0,2.859-1.076v9.443a14.949,14.949,0,0,1-4.432,1.169,38.063,38.063,0,0,1-4.622.327,23.854,23.854,0,0,1-7.481-.981,9.888,9.888,0,0,1-4.574-2.992,11.256,11.256,0,0,1-2.287-5,34.465,34.465,0,0,1-.62-6.918V29.691Z" transform="translate(0 5.641)" fill-rule="evenodd"/>
    <path id="Path_133" data-name="Path 133" d="M33.822,41.291a11.3,11.3,0,0,0,4,7.851,12.673,12.673,0,0,0,8.291,2.8,13.844,13.844,0,0,0,7.194-1.73,19.834,19.834,0,0,0,5.1-4.346L66.6,51.946a23.127,23.127,0,0,1-8.958,6.916,26.839,26.839,0,0,1-10.388,2.059,27.934,27.934,0,0,1-9.721-1.684,23.4,23.4,0,0,1-7.909-4.766A22.623,22.623,0,0,1,24.34,47.04a23.338,23.338,0,0,1-1.954-9.676,23.336,23.336,0,0,1,1.954-9.674,22.6,22.6,0,0,1,5.289-7.431,23.369,23.369,0,0,1,7.909-4.766,27.934,27.934,0,0,1,9.721-1.684,22.575,22.575,0,0,1,8.717,1.633,18.7,18.7,0,0,1,6.768,4.722,21.686,21.686,0,0,1,4.384,7.619A31.687,31.687,0,0,1,68.7,38.21v3.085Zm23.443-8.414a10.461,10.461,0,0,0-3.147-7.8q-3.046-2.852-8.481-2.852a11.238,11.238,0,0,0-8.148,2.9,12.826,12.826,0,0,0-3.667,7.758Z" transform="translate(17.733 10.869)" fill-rule="evenodd"/>
    <path id="Path_134" data-name="Path 134" d="M86.452,28.389a18.177,18.177,0,0,0-4.192-3.272A9.149,9.149,0,0,0,77.78,23.9a13.517,13.517,0,0,0-5.622,1.122,13.3,13.3,0,0,0-4.24,2.992,12.623,12.623,0,0,0-2.669,4.3,14.531,14.531,0,0,0,0,10.094,12.623,12.623,0,0,0,2.669,4.3,13.3,13.3,0,0,0,4.24,2.992A13.517,13.517,0,0,0,77.78,50.82a11.53,11.53,0,0,0,4.954-1.074,10.75,10.75,0,0,0,3.905-3.131l7.624,8.037a17.589,17.589,0,0,1-3.955,2.9,27.207,27.207,0,0,1-4.522,1.969A28.016,28.016,0,0,1,81.4,60.594a24.106,24.106,0,0,1-3.622.327,27.954,27.954,0,0,1-9.721-1.682,23.419,23.419,0,0,1-7.909-4.768,22.638,22.638,0,0,1-5.289-7.431,23.33,23.33,0,0,1-1.954-9.674,23.324,23.324,0,0,1,1.954-9.674,22.639,22.639,0,0,1,5.289-7.431,23.419,23.419,0,0,1,7.909-4.768,27.913,27.913,0,0,1,9.721-1.682,25.309,25.309,0,0,1,8.816,1.63,20.075,20.075,0,0,1,7.766,5.188Z" transform="translate(41.914 10.871)" fill-rule="evenodd"/>
    <path id="Path_135" data-name="Path 135" d="M91.248,32.062h.19a13.183,13.183,0,0,1,4.719-5.1,15.246,15.246,0,0,1,8.719-2.286,18.224,18.224,0,0,1,7.766,1.5,14.272,14.272,0,0,1,8.053,9.535,25.372,25.372,0,0,1,.858,6.638V70.666H110.117V47.953q0-1.871-.19-4.161a14.726,14.726,0,0,0-1-4.3,8.066,8.066,0,0,0-2.525-3.365,7.331,7.331,0,0,0-4.669-1.355,11.089,11.089,0,0,0-4.814.935,9.208,9.208,0,0,0-3.24,2.523,9.986,9.986,0,0,0-1.857,3.646,15.985,15.985,0,0,0-.574,4.3V70.666H79.812V0H91.248Z" transform="translate(63.231)" fill-rule="evenodd"/>
    <path id="Path_136" data-name="Path 136" d="M109.058,37.363a23.33,23.33,0,0,1,1.954-9.674,22.586,22.586,0,0,1,5.289-7.431,23.4,23.4,0,0,1,7.909-4.768,28.93,28.93,0,0,1,19.442,0,23.4,23.4,0,0,1,7.909,4.768,22.587,22.587,0,0,1,5.289,7.431,23.36,23.36,0,0,1,1.955,9.674,23.36,23.36,0,0,1-1.955,9.674,22.586,22.586,0,0,1-5.289,7.431,23.4,23.4,0,0,1-7.909,4.768,28.93,28.93,0,0,1-19.442,0,23.4,23.4,0,0,1-7.909-4.768,22.586,22.586,0,0,1-5.289-7.431,23.33,23.33,0,0,1-1.954-9.674m11.436,0a14.37,14.37,0,0,0,.905,5.049,12.63,12.63,0,0,0,2.669,4.3,13.276,13.276,0,0,0,4.24,2.99,14.653,14.653,0,0,0,11.246,0,13.3,13.3,0,0,0,4.24-2.99,12.653,12.653,0,0,0,2.667-4.3,14.5,14.5,0,0,0,0-10.1,12.618,12.618,0,0,0-2.667-4.3,13.3,13.3,0,0,0-4.24-2.992,14.653,14.653,0,0,0-11.246,0,13.282,13.282,0,0,0-4.24,2.992,12.6,12.6,0,0,0-2.669,4.3,14.353,14.353,0,0,0-.905,5.047" transform="translate(86.399 10.869)" fill-rule="evenodd"/>
    <rect id="Rectangle_156" data-name="Rectangle 156" width="11.436" height="70.666" transform="translate(256.069)"/>
    <path id="Path_137" data-name="Path 137" d="M198.336,59.3H187.471V52.106h-.188a15.82,15.82,0,0,1-4.954,5.842q-3.334,2.477-9.053,2.477a18.741,18.741,0,0,1-7.769-1.448,13.962,13.962,0,0,1-5.194-3.928,15.166,15.166,0,0,1-2.86-5.655,25.458,25.458,0,0,1-.858-6.638V14.436H168.03V37.149q0,1.868.19,4.161a14.728,14.728,0,0,0,1,4.3,8.2,8.2,0,0,0,2.475,3.365,7.29,7.29,0,0,0,4.717,1.355,11.077,11.077,0,0,0,4.812-.935,9.219,9.219,0,0,0,3.242-2.523,9.985,9.985,0,0,0,1.857-3.646,15.965,15.965,0,0,0,.572-4.3V14.436h11.436Z" transform="translate(124.061 11.363)" fill-rule="evenodd"/>
    <path id="Path_138" data-name="Path 138" d="M184.139,29.691V20.159h9.433V7.166h11.436V20.159h12.582v9.533H205.008V49.323a9.63,9.63,0,0,0,1.283,5.328q1.285,1.962,5.1,1.962a19.007,19.007,0,0,0,3.337-.327,7.077,7.077,0,0,0,2.859-1.076v9.443a14.95,14.95,0,0,1-4.432,1.169,38.034,38.034,0,0,1-4.62.327,23.835,23.835,0,0,1-7.479-.981,9.889,9.889,0,0,1-4.577-2.992,11.256,11.256,0,0,1-2.287-5,34.463,34.463,0,0,1-.62-6.918V29.691Z" transform="translate(145.883 5.641)" fill-rule="evenodd"/>
    <rect id="Rectangle_157" data-name="Rectangle 157" width="11.436" height="44.863" transform="translate(372.812 25.799)"/>
    <path id="Path_139" data-name="Path 139" d="M207.109,8.875a6.4,6.4,0,0,1,2.05-4.72,7.109,7.109,0,0,1,5.194-2.012,7.655,7.655,0,0,1,5.289,1.919,6.187,6.187,0,0,1,2.144,4.813,6.185,6.185,0,0,1-2.144,4.815,7.655,7.655,0,0,1-5.289,1.919,7.1,7.1,0,0,1-5.194-2.012,6.393,6.393,0,0,1-2.05-4.722" transform="translate(164.081 1.684)" fill-rule="evenodd"/>
    <path id="Path_140" data-name="Path 140" d="M220.456,37.363a23.331,23.331,0,0,1,1.955-9.674,22.586,22.586,0,0,1,5.289-7.431,23.4,23.4,0,0,1,7.909-4.768,28.93,28.93,0,0,1,19.442,0,23.4,23.4,0,0,1,7.909,4.768,22.587,22.587,0,0,1,5.289,7.431,23.362,23.362,0,0,1,1.955,9.674,23.362,23.362,0,0,1-1.955,9.674,22.587,22.587,0,0,1-5.289,7.431,23.4,23.4,0,0,1-7.909,4.768,28.93,28.93,0,0,1-19.442,0,23.4,23.4,0,0,1-7.909-4.768,22.586,22.586,0,0,1-5.289-7.431,23.331,23.331,0,0,1-1.955-9.674m11.436,0a14.331,14.331,0,0,0,.907,5.049,12.631,12.631,0,0,0,2.669,4.3,13.249,13.249,0,0,0,4.24,2.99,14.653,14.653,0,0,0,11.246,0,13.3,13.3,0,0,0,4.24-2.99,12.653,12.653,0,0,0,2.667-4.3,14.5,14.5,0,0,0,0-10.1,12.619,12.619,0,0,0-2.667-4.3,13.3,13.3,0,0,0-4.24-2.992,14.653,14.653,0,0,0-11.246,0,13.289,13.289,0,0,0-4.239,2.99,12.619,12.619,0,0,0-2.667,4.3,14.334,14.334,0,0,0-.909,5.049Z" transform="translate(174.654 10.869)" fill-rule="evenodd"/>
    <path id="Path_141" data-name="Path 141" d="M254.168,14.933h10.865v7.2h.19a15.8,15.8,0,0,1,4.952-5.844q3.336-2.477,9.056-2.477a18.223,18.223,0,0,1,7.766,1.5,14.284,14.284,0,0,1,8.053,9.535,25.294,25.294,0,0,1,.858,6.638V59.8H284.475V37.086q0-1.868-.19-4.161a14.611,14.611,0,0,0-1-4.3,8.047,8.047,0,0,0-2.524-3.365,7.338,7.338,0,0,0-4.671-1.355,11.077,11.077,0,0,0-4.812.935,9.22,9.22,0,0,0-3.242,2.523,9.987,9.987,0,0,0-1.857,3.646,15.986,15.986,0,0,0-.572,4.3V59.8H254.17Z" transform="translate(201.363 10.865)" fill-rule="evenodd"/>
    <rect id="Rectangle_158" data-name="Rectangle 158" width="3.955" height="22.788" transform="translate(146.104 86.604)"/>
    <path id="Path_142" data-name="Path 142" d="M91.17,51.872l.111,1.957a6.109,6.109,0,0,1,4.943-2.27q5.3,0,5.4,6.057V68.807H97.811V57.836a3.479,3.479,0,0,0-.7-2.388,2.945,2.945,0,0,0-2.283-.776,3.678,3.678,0,0,0-3.438,2.082V68.807H87.577V51.872Z" transform="translate(69.383 40.585)"/>
    <path id="Path_143" data-name="Path 143" d="M102.509,51.872l.109,1.957a6.115,6.115,0,0,1,4.945-2.27q5.307,0,5.4,6.057V68.807h-3.816V57.836a3.479,3.479,0,0,0-.7-2.388,2.937,2.937,0,0,0-2.283-.776,3.682,3.682,0,0,0-3.438,2.082V68.807H98.914V51.872Z" transform="translate(78.364 40.585)"/>
    <path id="Path_144" data-name="Path 144" d="M109.884,60.182a9.949,9.949,0,0,1,.989-4.482,7.181,7.181,0,0,1,2.778-3.069,7.838,7.838,0,0,1,4.111-1.072,7.422,7.422,0,0,1,5.579,2.207,8.672,8.672,0,0,1,2.316,5.853l.016.892a10.071,10.071,0,0,1-.964,4.477,7.139,7.139,0,0,1-2.764,3.052,7.916,7.916,0,0,1-4.153,1.078,7.371,7.371,0,0,1-5.751-2.386,9.122,9.122,0,0,1-2.158-6.362Zm3.814.329A6.8,6.8,0,0,0,114.78,64.6a3.523,3.523,0,0,0,3.013,1.48,3.485,3.485,0,0,0,3.007-1.5,7.533,7.533,0,0,0,1.074-4.4,6.729,6.729,0,0,0-1.106-4.069,3.735,3.735,0,0,0-5.972-.023,7.374,7.374,0,0,0-1.1,4.421" transform="translate(87.055 40.585)"/>
    <path id="Path_145" data-name="Path 145" d="M128.424,63.848l3.6-12.113h3.939l-5.886,16.933H126.76l-5.932-16.933h3.955Z" transform="translate(95.725 40.723)"/>
    <path id="Path_146" data-name="Path 146" d="M142.215,68.805a5.846,5.846,0,0,1-.439-1.582,5.942,5.942,0,0,1-4.459,1.894,6,6,0,0,1-4.174-1.455,4.652,4.652,0,0,1-1.617-3.6,4.8,4.8,0,0,1,2.018-4.155,9.79,9.79,0,0,1,5.767-1.449h2.337v-1.11a2.958,2.958,0,0,0-.737-2.105,2.927,2.927,0,0,0-2.244-.79,3.369,3.369,0,0,0-2.135.649,2,2,0,0,0-.832,1.651h-3.814a4.208,4.208,0,0,1,.927-2.606,6.148,6.148,0,0,1,2.518-1.9,8.869,8.869,0,0,1,3.554-.688,7.133,7.133,0,0,1,4.757,1.494,5.319,5.319,0,0,1,1.821,4.2v7.638a8.657,8.657,0,0,0,.643,3.648v.264Zm-4.19-2.738a4.366,4.366,0,0,0,2.127-.549,3.637,3.637,0,0,0,1.5-1.471V60.854h-2.054a5.642,5.642,0,0,0-3.187.736,2.384,2.384,0,0,0-1.068,2.082,2.225,2.225,0,0,0,.729,1.746,2.839,2.839,0,0,0,1.955.649" transform="translate(104.201 40.585)"/>
    <path id="Path_147" data-name="Path 147" d="M148.482,49.431v4.116h3v2.817h-3v9.454a2.065,2.065,0,0,0,.385,1.4,1.778,1.778,0,0,0,1.373.431,5.831,5.831,0,0,0,1.335-.157v2.943a9.385,9.385,0,0,1-2.513.359q-4.4,0-4.395-4.836V56.363h-2.794V53.547h2.794V49.431Z" transform="translate(112.399 38.91)"/>
    <path id="Path_148" data-name="Path 148" d="M150.226,50.17a2.012,2.012,0,0,1,.557-1.455,2.108,2.108,0,0,1,1.592-.581,2.136,2.136,0,0,1,1.6.581,2,2,0,0,1,.565,1.455,1.957,1.957,0,0,1-.565,1.433,2.152,2.152,0,0,1-1.6.57,2.124,2.124,0,0,1-1.592-.57,1.973,1.973,0,0,1-.557-1.433M154.275,71.5h-3.814V54.568h3.814Z" transform="translate(119.016 37.889)"/>
    <path id="Path_149" data-name="Path 149" d="M155.766,60.182a9.973,9.973,0,0,1,.989-4.482,7.2,7.2,0,0,1,2.778-3.069,7.845,7.845,0,0,1,4.113-1.072,7.425,7.425,0,0,1,5.579,2.207,8.672,8.672,0,0,1,2.316,5.853l.016.892a10.046,10.046,0,0,1-.966,4.477,7.146,7.146,0,0,1-2.762,3.052,7.92,7.92,0,0,1-4.153,1.078,7.374,7.374,0,0,1-5.753-2.386,9.122,9.122,0,0,1-2.158-6.362Zm3.814.329a6.817,6.817,0,0,0,1.083,4.093,3.526,3.526,0,0,0,3.015,1.48,3.484,3.484,0,0,0,3.006-1.5,7.519,7.519,0,0,0,1.074-4.4,6.717,6.717,0,0,0-1.106-4.069,3.735,3.735,0,0,0-5.972-.023,7.374,7.374,0,0,0-1.1,4.421" transform="translate(123.405 40.585)"/>
    <path id="Path_150" data-name="Path 150" d="M171.3,51.872l.111,1.957a6.108,6.108,0,0,1,4.941-2.27q5.307,0,5.4,6.057V68.807h-3.814V57.836a3.479,3.479,0,0,0-.7-2.388,2.939,2.939,0,0,0-2.283-.776,3.682,3.682,0,0,0-3.437,2.082V68.807h-3.814V51.872Z" transform="translate(132.865 40.585)"/>
    <path id="Path_151" data-name="Path 151" d="M184.507,63.205a10.05,10.05,0,0,1,1.821-6.284,5.842,5.842,0,0,1,4.88-2.37,5.544,5.544,0,0,1,4.364,1.877v-8.67h3.814V71.8h-3.452l-.188-1.751a5.636,5.636,0,0,1-4.568,2.064,5.8,5.8,0,0,1-4.827-2.395,10.412,10.412,0,0,1-1.844-6.511m3.814.329a7.026,7.026,0,0,0,1,4.03,3.233,3.233,0,0,0,2.832,1.448,3.6,3.6,0,0,0,3.421-2.082V59.7a3.551,3.551,0,0,0-3.391-2.034,3.26,3.26,0,0,0-2.855,1.464,7.824,7.824,0,0,0-1.005,4.405" transform="translate(146.175 37.594)"/>
    <path id="Path_152" data-name="Path 152" d="M195.994,60.182a9.973,9.973,0,0,1,.989-4.482,7.2,7.2,0,0,1,2.778-3.069,7.845,7.845,0,0,1,4.113-1.072,7.425,7.425,0,0,1,5.579,2.207,8.672,8.672,0,0,1,2.316,5.853l.016.892a10.047,10.047,0,0,1-.966,4.477,7.146,7.146,0,0,1-2.762,3.052,7.921,7.921,0,0,1-4.153,1.078,7.374,7.374,0,0,1-5.753-2.386,9.122,9.122,0,0,1-2.158-6.362Zm3.814.329A6.817,6.817,0,0,0,200.89,64.6a3.526,3.526,0,0,0,3.015,1.48,3.484,3.484,0,0,0,3.006-1.5,7.519,7.519,0,0,0,1.074-4.4,6.717,6.717,0,0,0-1.106-4.069,3.735,3.735,0,0,0-5.972-.023,7.374,7.374,0,0,0-1.1,4.421" transform="translate(155.275 40.585)"/>
    <path id="Path_153" data-name="Path 153" d="M211.529,51.872l.111,1.957a6.111,6.111,0,0,1,4.943-2.27q5.307,0,5.4,6.057V68.807H218.17V57.836a3.479,3.479,0,0,0-.7-2.388,2.939,2.939,0,0,0-2.283-.776,3.678,3.678,0,0,0-3.438,2.082V68.807h-3.814V51.872Z" transform="translate(164.736 40.585)"/>
    <path id="Path_154" data-name="Path 154" d="M227.071,69.118a7.906,7.906,0,0,1-5.877-2.275,8.25,8.25,0,0,1-2.253-6.066v-.47a10.106,10.106,0,0,1,.982-4.53,7.448,7.448,0,0,1,2.753-3.108,7.3,7.3,0,0,1,3.956-1.11,6.678,6.678,0,0,1,5.361,2.205,9.324,9.324,0,0,1,1.891,6.244v1.535h-11.1a5.076,5.076,0,0,0,1.405,3.317,4.228,4.228,0,0,0,3.1,1.222,5.171,5.171,0,0,0,4.269-2.114l2.056,1.957a6.87,6.87,0,0,1-2.722,2.355,8.562,8.562,0,0,1-3.823.836m-.455-14.508a3.218,3.218,0,0,0-2.534,1.1,5.689,5.689,0,0,0-1.233,3.052h7.268v-.282a4.613,4.613,0,0,0-1.02-2.886,3.193,3.193,0,0,0-2.48-.979" transform="translate(173.455 40.585)"/>
    <path id="Path_155" data-name="Path 155" d="M245.016,55.346a9.393,9.393,0,0,0-1.552-.125,3.5,3.5,0,0,0-3.533,2V68.805h-3.814V51.872h3.64l.1,1.893a4.3,4.3,0,0,1,3.83-2.205,3.6,3.6,0,0,1,1.35.218Z" transform="translate(187.063 40.585)"/>
    <path id="Path_156" data-name="Path 156" d="M243.794,50.17a2.005,2.005,0,0,1,.557-1.455,2.107,2.107,0,0,1,1.593-.581,2.133,2.133,0,0,1,1.6.581,1.99,1.99,0,0,1,.566,1.455,1.952,1.952,0,0,1-.566,1.433,2.149,2.149,0,0,1-1.6.57,2.123,2.123,0,0,1-1.593-.57,1.966,1.966,0,0,1-.557-1.433M247.843,71.5h-3.814V54.568h3.814Z" transform="translate(193.145 37.889)"/>
    <path id="Path_157" data-name="Path 157" d="M249.361,60.213a9.9,9.9,0,0,1,1.859-6.3,5.979,5.979,0,0,1,4.938-2.354,5.6,5.6,0,0,1,4.567,2.019l.172-1.709h3.438V68.29a6.8,6.8,0,0,1-2.081,5.258,7.921,7.921,0,0,1-5.61,1.925,9.059,9.059,0,0,1-3.649-.774,6.476,6.476,0,0,1-2.708-2.027l1.8-2.284a5.457,5.457,0,0,0,4.332,2.08,4.227,4.227,0,0,0,3-1.024,3.931,3.931,0,0,0,1.1-3.013V67.287a5.617,5.617,0,0,1-4.395,1.832,5.965,5.965,0,0,1-4.873-2.363,10.2,10.2,0,0,1-1.891-6.543m3.8.329a6.791,6.791,0,0,0,1.043,4.014,3.361,3.361,0,0,0,2.9,1.464,3.674,3.674,0,0,0,3.421-1.971V56.6a3.621,3.621,0,0,0-3.389-1.925A3.374,3.374,0,0,0,254.2,56.16a7.608,7.608,0,0,0-1.043,4.382" transform="translate(197.555 40.586)"/>
    <path id="Path_158" data-name="Path 158" d="M265.046,56.71a5.977,5.977,0,0,1,4.726-2.159q5.428,0,5.508,6.182V71.8h-3.814V60.874a3.345,3.345,0,0,0-.762-2.482,3.121,3.121,0,0,0-2.237-.727,3.678,3.678,0,0,0-3.421,2.036V71.8h-3.814V47.758h3.814Z" transform="translate(206.96 37.593)"/>
    <path id="Path_159" data-name="Path 159" d="M278.171,49.431v4.116h3v2.817h-3v9.454a2.065,2.065,0,0,0,.385,1.4,1.779,1.779,0,0,0,1.373.431,5.83,5.83,0,0,0,1.335-.157v2.943a9.384,9.384,0,0,1-2.513.359q-4.4,0-4.395-4.836V56.363h-2.794V53.547h2.794V49.431Z" transform="translate(215.145 38.91)"/>
  </g>
</svg>
