<svg xmlns="http://www.w3.org/2000/svg" width="24.55" height="24" viewBox="0 0 24.55 24">
  <g id="Icon_awesome-twitter-square" data-name="Icon awesome-twitter-square" transform="translate(0 0)">
    <path id="Icon_awesome-twitter-square-2" data-name="Icon awesome-twitter-square" d="M21.92,2.25H2.63A2.6,2.6,0,0,0,0,4.821V23.679A2.6,2.6,0,0,0,2.63,26.25H21.92a2.6,2.6,0,0,0,2.63-2.571V4.821A2.6,2.6,0,0,0,21.92,2.25Zm-2.68,8.507c.011.15.011.305.011.455a10.036,10.036,0,0,1-10.226,10,10.349,10.349,0,0,1-5.518-1.575,7.744,7.744,0,0,0,.866.043,7.312,7.312,0,0,0,4.461-1.5,3.59,3.59,0,0,1-3.359-2.437A3.96,3.96,0,0,0,7.1,15.675a3.535,3.535,0,0,1-2.877-3.45v-.043a3.654,3.654,0,0,0,1.622.445A3.486,3.486,0,0,1,4.241,9.7a3.41,3.41,0,0,1,.488-1.773A10.284,10.284,0,0,0,12.138,11.6a3.539,3.539,0,0,1,3.507-4.318A3.62,3.62,0,0,1,18.27,8.395a7.142,7.142,0,0,0,2.28-.846,3.52,3.52,0,0,1-1.578,1.934,7.282,7.282,0,0,0,2.071-.546A7.474,7.474,0,0,1,19.24,10.757Z" transform="translate(0 -2.25)" fill="#1da1f2"/>
  </g>
</svg>
