<svg xmlns="http://www.w3.org/2000/svg" width="45.433" height="39.692" viewBox="0 0 45.433 39.692">
  <g id="Heart" transform="translate(-54.534 -380.046)">
    <path id="Outline" d="M42.389,49.537,24.235,67.619,6.122,49.506A10.516,10.516,0,1,1,20.995,34.634l2.3,2.3a1.367,1.367,0,0,0,1.94,0l2.276-2.276A10.523,10.523,0,0,1,42.389,49.537Z" transform="translate(53 350)" fill="none" stroke="#fff" stroke-width="3"/>
    <path id="Fill" d="M3.5,31.758l-.214.213-.213-.213a.124.124,0,1,1,.175-.175l.027.027a.016.016,0,0,0,.023,0l.027-.027a.124.124,0,0,1,.175.175Z" transform="translate(73.966 367.824)" fill="#fff" opacity="0"/>
  </g>
</svg>
