<svg xmlns="http://www.w3.org/2000/svg" width="1068" height="200.711" viewBox="0 0 1068 200.711">
  <g id="White_Brackets" data-name="White Brackets" transform="translate(-426 -431.645)">
    <path id="Clip-30" d="M52.332,1.83A34.418,34.418,0,0,0,40.955,3.648,23.136,23.136,0,0,0,31.9,9.412a26.036,26.036,0,0,0-5.952,10.173,46.932,46.932,0,0,0-2.108,15.028v39.1a11.655,11.655,0,0,1-2.982,8.361,19.2,19.2,0,0,1-6.953,4.748,31.088,31.088,0,0,1-7.941,2.032A58.1,58.1,0,0,1,0,89.305v25.765a59.5,59.5,0,0,1,5.965.446,31.643,31.643,0,0,1,7.941,2.038,19.282,19.282,0,0,1,6.953,4.748,11.681,11.681,0,0,1,2.982,8.367v38.874a44.879,44.879,0,0,0,2.215,15.021,28.5,28.5,0,0,0,6.072,10.286,22.447,22.447,0,0,0,9.048,5.877,33.5,33.5,0,0,0,11.156,1.813H75.506V176.768H64.689a18.863,18.863,0,0,1-7.947-1.355,10.256,10.256,0,0,1-4.3-3.5,10.833,10.833,0,0,1-1.768-4.748,38.618,38.618,0,0,1-.34-4.855V125.7q0-7.9-2.2-12.438a18.47,18.47,0,0,0-5.411-6.887,16.45,16.45,0,0,0-7.072-3.055,69.734,69.734,0,0,0-7.387-.9v-.446a55.387,55.387,0,0,0,7.387-1.022,17.529,17.529,0,0,0,7.072-3.161,18.417,18.417,0,0,0,5.411-6.9q2.19-4.515,2.2-12.425V42.071a38.539,38.539,0,0,1,.34-4.855,10.8,10.8,0,0,1,1.768-4.754,10.311,10.311,0,0,1,4.3-3.506,18.972,18.972,0,0,1,7.947-1.348H75.506V1.83Z" transform="translate(426 429.815)" fill="#fff" opacity="0.24"/>
    <path id="Clip-33" d="M60.173,1.83V27.608H70.989a18.992,18.992,0,0,1,7.947,1.348,10.309,10.309,0,0,1,4.3,3.506,10.823,10.823,0,0,1,1.768,4.754,38.4,38.4,0,0,1,.334,4.855V78.68c0,5.281.742,9.421,2.2,12.438A18.368,18.368,0,0,0,92.961,98a16.318,16.318,0,0,0,7.066,3.055,69.255,69.255,0,0,0,7.387.909v.446c-2.353.307-4.82.677-7.387,1.135a16.386,16.386,0,0,0-7.066,3.048,18.35,18.35,0,0,0-5.418,6.893c-1.46,3.017-2.2,7.157-2.2,12.431v36.39a38.646,38.646,0,0,1-.334,4.861,10.8,10.8,0,0,1-1.768,4.742,10.315,10.315,0,0,1-4.3,3.506,19,19,0,0,1-7.947,1.348H60.173V202.54h23.18a34.192,34.192,0,0,0,11.37-1.813,22.329,22.329,0,0,0,8.948-5.758,28.365,28.365,0,0,0,5.952-10.167,45.185,45.185,0,0,0,2.215-15.041V130.669A11.983,11.983,0,0,1,114.7,122.3a18.507,18.507,0,0,1,6.739-4.748,29.7,29.7,0,0,1,7.834-2.032,59.584,59.584,0,0,1,6.4-.452V89.305a60.935,60.935,0,0,1-6.4-.446,29.693,29.693,0,0,1-7.834-2.038,18.356,18.356,0,0,1-6.739-4.748,11.956,11.956,0,0,1-2.863-8.361V34.839a45.027,45.027,0,0,0-2.215-15.028,28.6,28.6,0,0,0-6.066-10.286,22.626,22.626,0,0,0-8.948-5.877,31.351,31.351,0,0,0-10.6-1.819Z" transform="translate(1358.322 429.815)" fill="#fff" fill-rule="evenodd" opacity="0.24"/>
  </g>
</svg>
