<svg xmlns="http://www.w3.org/2000/svg" width="300" height="53.999" viewBox="0 0 300 53.999">
  <g id="All_White_Techolution_-_Innovation_DOne_Right" data-name="All White Techolution - Innovation DOne Right" transform="translate(-767 -5676.001)">
    <g id="Techolution_Green_Blue_Logo" data-name="Techolution Green Blue Logo" transform="translate(767 5680.108)">
      <path id="Fill-35" d="M917.128-138.618l3.491,2.038-2.706,4.69h-9.774L900.5-118.659l3.173,1.833,6.609-11.452h9.774l3.732-6.468,3.476,1.987.461-12.211Z" transform="translate(-885.052 144.97)" fill="#fff" fill-rule="evenodd"/>
      <g id="Clip-30" transform="translate(0 1.521)">
        <path id="path-1" d="M889.061-143.141a4.685,4.685,0,0,0-1.552.249,3.151,3.151,0,0,0-1.236.786,3.556,3.556,0,0,0-.812,1.389,6.383,6.383,0,0,0-.288,2.05v5.335a1.586,1.586,0,0,1-.407,1.14,2.621,2.621,0,0,1-.948.648,4.269,4.269,0,0,1-1.083.278,8.028,8.028,0,0,1-.814.062v3.515c.181,0,.452.021.814.061a4.341,4.341,0,0,1,1.083.279,2.631,2.631,0,0,1,.948.648,1.591,1.591,0,0,1,.407,1.142v5.3a6.134,6.134,0,0,0,.3,2.049,3.9,3.9,0,0,0,.828,1.4,3.058,3.058,0,0,0,1.235.8,4.563,4.563,0,0,0,1.522.248h3.162v-3.517h-1.476a2.576,2.576,0,0,1-1.084-.185,1.4,1.4,0,0,1-.587-.477,1.476,1.476,0,0,1-.241-.648,5.291,5.291,0,0,1-.047-.663v-5a3.966,3.966,0,0,0-.3-1.7,2.521,2.521,0,0,0-.738-.94,2.246,2.246,0,0,0-.965-.417,9.335,9.335,0,0,0-1.008-.123v-.061a7.624,7.624,0,0,0,1.008-.14,2.4,2.4,0,0,0,.965-.432,2.514,2.514,0,0,0,.738-.941,3.955,3.955,0,0,0,.3-1.695v-4.965a5.28,5.28,0,0,1,.047-.663,1.472,1.472,0,0,1,.241-.649,1.407,1.407,0,0,1,.587-.478,2.59,2.59,0,0,1,1.084-.184h1.476v-3.517Z" transform="translate(-881.921 143.141)" fill="#fff" fill-rule="evenodd"/>
      </g>
      <path id="Clip-33" d="M942.095-143.141v3.517h1.475a2.593,2.593,0,0,1,1.084.184,1.4,1.4,0,0,1,.587.478,1.488,1.488,0,0,1,.242.649,5.265,5.265,0,0,1,.045.663v4.995a3.946,3.946,0,0,0,.3,1.7,2.5,2.5,0,0,0,.738.94,2.228,2.228,0,0,0,.965.417,9.547,9.547,0,0,0,1.008.125v.061c-.321.042-.658.092-1.008.155a2.236,2.236,0,0,0-.965.416,2.494,2.494,0,0,0-.738.94,3.946,3.946,0,0,0-.3,1.7v4.964a5.3,5.3,0,0,1-.045.664,1.485,1.485,0,0,1-.242.647,1.4,1.4,0,0,1-.587.478,2.594,2.594,0,0,1-1.084.184h-1.475v3.517h3.162a4.652,4.652,0,0,0,1.551-.248,3.043,3.043,0,0,0,1.221-.785,3.875,3.875,0,0,0,.812-1.388,6.151,6.151,0,0,0,.3-2.051v-5.333a1.633,1.633,0,0,1,.39-1.142,2.526,2.526,0,0,1,.92-.648,4.069,4.069,0,0,1,1.068-.278,8.23,8.23,0,0,1,.874-.062v-3.515a8.423,8.423,0,0,1-.874-.061,4.071,4.071,0,0,1-1.068-.279,2.506,2.506,0,0,1-.92-.648,1.627,1.627,0,0,1-.39-1.14v-5.3a6.13,6.13,0,0,0-.3-2.05,3.9,3.9,0,0,0-.827-1.4,3.08,3.08,0,0,0-1.221-.8,4.273,4.273,0,0,0-1.446-.249Z" transform="translate(-892.06 144.662)" fill="#fff" fill-rule="evenodd"/>
    </g>
    <g id="techolution" transform="translate(836.287 5676.001)">
      <g id="Artboard-2" transform="translate(0 0)">
        <g id="techolution-logo-black-copy-2">
          <g id="name">
            <path id="Path" d="M972.615-132.264V-136.7h4.376v-6.046H982.3v6.046h5.836v4.435H982.3v9.134a4.489,4.489,0,0,0,.6,2.479,2.626,2.626,0,0,0,2.366.913,8.716,8.716,0,0,0,1.548-.152,3.287,3.287,0,0,0,1.326-.5V-116a6.918,6.918,0,0,1-2.056.544,17.445,17.445,0,0,1-2.145.152,11.021,11.021,0,0,1-3.471-.456,4.573,4.573,0,0,1-2.122-1.392,5.239,5.239,0,0,1-1.061-2.327,16.073,16.073,0,0,1-.288-3.218v-9.57Z" transform="translate(-972.615 148.703)" fill="#fff" fill-rule="evenodd"/>
            <path id="Combined-Shape" d="M1000.3-123.316a5.273,5.273,0,0,0,1.858,3.653,5.869,5.869,0,0,0,3.847,1.3,6.415,6.415,0,0,0,3.339-.8,9.219,9.219,0,0,0,2.366-2.022l3.8,2.827a10.747,10.747,0,0,1-4.156,3.218,12.413,12.413,0,0,1-4.82.958,12.93,12.93,0,0,1-4.51-.783,10.839,10.839,0,0,1-3.67-2.218,10.543,10.543,0,0,1-2.454-3.457,10.893,10.893,0,0,1-.906-4.5,10.892,10.892,0,0,1,.906-4.5,10.543,10.543,0,0,1,2.454-3.458,10.839,10.839,0,0,1,3.67-2.218,12.93,12.93,0,0,1,4.51-.783,10.467,10.467,0,0,1,4.045.76,8.665,8.665,0,0,1,3.14,2.2,10.1,10.1,0,0,1,2.034,3.544,14.81,14.81,0,0,1,.729,4.851v1.435Zm10.877-3.915a4.873,4.873,0,0,0-1.459-3.631,5.531,5.531,0,0,0-3.936-1.327,5.206,5.206,0,0,0-3.78,1.349,5.976,5.976,0,0,0-1.7,3.61Z" transform="translate(-976.386 147.584)" fill="#fff" fill-rule="evenodd"/>
            <path id="Path-2" d="M1041.084-129.317a8.467,8.467,0,0,0-1.946-1.522,4.239,4.239,0,0,0-2.078-.565,6.254,6.254,0,0,0-2.608.522,6.171,6.171,0,0,0-1.968,1.392,5.876,5.876,0,0,0-1.238,2,6.771,6.771,0,0,0,0,4.7,5.88,5.88,0,0,0,1.238,2,6.159,6.159,0,0,0,1.968,1.392,6.242,6.242,0,0,0,2.608.522,5.318,5.318,0,0,0,2.3-.5,4.987,4.987,0,0,0,1.813-1.457l3.537,3.74a8.139,8.139,0,0,1-1.835,1.348,12.608,12.608,0,0,1-2.1.916,12.964,12.964,0,0,1-2.034.5,11.057,11.057,0,0,1-1.681.152,12.918,12.918,0,0,1-4.51-.782,10.851,10.851,0,0,1-3.67-2.219,10.508,10.508,0,0,1-2.454-3.458,10.888,10.888,0,0,1-.907-4.5,10.888,10.888,0,0,1,.907-4.5,10.507,10.507,0,0,1,2.454-3.458,10.851,10.851,0,0,1,3.67-2.219,12.918,12.918,0,0,1,4.51-.782,11.712,11.712,0,0,1,4.09.758,9.321,9.321,0,0,1,3.6,2.414Z" transform="translate(-981.528 147.583)" fill="#fff" fill-rule="evenodd"/>
            <path id="Path-3" d="M1057.733-134.992h.088a6.128,6.128,0,0,1,2.189-2.371,7.063,7.063,0,0,1,4.046-1.064,8.423,8.423,0,0,1,3.6.7,6.789,6.789,0,0,1,2.41,1.827,6.86,6.86,0,0,1,1.326,2.609,11.874,11.874,0,0,1,.4,3.087v13.176h-5.306V-127.6q0-.869-.088-1.935a6.863,6.863,0,0,0-.465-2,3.744,3.744,0,0,0-1.172-1.566,3.4,3.4,0,0,0-2.166-.631,5.157,5.157,0,0,0-2.233.435,4.289,4.289,0,0,0-1.5,1.175,4.644,4.644,0,0,0-.861,1.7,7.439,7.439,0,0,0-.266,2v11.394h-5.305V-149.91h5.306Z" transform="translate(-986.061 149.91)" fill="#fff" fill-rule="evenodd"/>
            <path id="Combined-Shape-2" d="M1081.672-125.143a10.887,10.887,0,0,1,.906-4.5,10.512,10.512,0,0,1,2.454-3.457,10.849,10.849,0,0,1,3.669-2.219,13.387,13.387,0,0,1,9.02,0,10.854,10.854,0,0,1,3.67,2.219,10.533,10.533,0,0,1,2.454,3.457,10.882,10.882,0,0,1,.906,4.5,10.882,10.882,0,0,1-.906,4.5,10.533,10.533,0,0,1-2.454,3.457,10.854,10.854,0,0,1-3.67,2.219,13.386,13.386,0,0,1-9.02,0,10.849,10.849,0,0,1-3.669-2.219,10.512,10.512,0,0,1-2.454-3.457A10.887,10.887,0,0,1,1081.672-125.143Zm5.305,0a6.707,6.707,0,0,0,.42,2.349,5.89,5.89,0,0,0,1.238,2,6.167,6.167,0,0,0,1.967,1.391,6.781,6.781,0,0,0,5.218,0,6.17,6.17,0,0,0,1.967-1.391,5.9,5.9,0,0,0,1.238-2,6.771,6.771,0,0,0,0-4.7,5.887,5.887,0,0,0-1.238-2,6.172,6.172,0,0,0-1.967-1.392,6.781,6.781,0,0,0-5.218,0,6.169,6.169,0,0,0-1.967,1.392,5.874,5.874,0,0,0-1.238,2A6.7,6.7,0,0,0,1086.977-125.143Z" transform="translate(-990.987 147.584)" fill="#fff" fill-rule="evenodd"/>
            <path id="Path-4" d="M1115.491-149.91h5.306v32.879h-5.306Z" transform="translate(-996.685 149.91)" fill="#fff" fill-rule="evenodd"/>
            <path id="Path-5" d="M1148.575-114.6h-5.04v-3.347h-.088a7.351,7.351,0,0,1-2.3,2.718,6.884,6.884,0,0,1-4.2,1.153,8.668,8.668,0,0,1-3.6-.674,6.482,6.482,0,0,1-2.411-1.828,7.063,7.063,0,0,1-1.326-2.631,11.807,11.807,0,0,1-.4-3.088v-13.177h5.305v10.568q0,.869.088,1.936a6.867,6.867,0,0,0,.465,2,3.823,3.823,0,0,0,1.149,1.566,3.374,3.374,0,0,0,2.189.63,5.128,5.128,0,0,0,2.233-.435,4.282,4.282,0,0,0,1.5-1.174,4.665,4.665,0,0,0,.862-1.7,7.448,7.448,0,0,0,.265-2v-11.394h5.305Z" transform="translate(-998.997 147.478)" fill="#fff" fill-rule="evenodd"/>
            <path id="Path-6" d="M1156.754-132.264V-136.7h4.377v-6.046h5.306v6.046h5.836v4.435h-5.837v9.134a4.489,4.489,0,0,0,.6,2.479,2.625,2.625,0,0,0,2.365.913,8.715,8.715,0,0,0,1.547-.152,3.275,3.275,0,0,0,1.327-.5V-116a6.918,6.918,0,0,1-2.056.544,17.434,17.434,0,0,1-2.143.152,11.023,11.023,0,0,1-3.472-.456,4.575,4.575,0,0,1-2.122-1.392,5.244,5.244,0,0,1-1.062-2.327,16.064,16.064,0,0,1-.288-3.218v-9.57Z" transform="translate(-1003.638 148.703)" fill="#fff" fill-rule="evenodd"/>
            <path id="Path-7" d="M1180.629-135.474h5.306V-114.6h-5.306Z" transform="translate(-1007.659 147.478)" fill="#fff" fill-rule="evenodd"/>
            <path id="Path-8" d="M1179.724-144.637a2.981,2.981,0,0,1,.951-2.2,3.292,3.292,0,0,1,2.41-.935,3.54,3.54,0,0,1,2.454.893,2.88,2.88,0,0,1,.995,2.239,2.877,2.877,0,0,1-.995,2.239,3.545,3.545,0,0,1-2.454.894,3.293,3.293,0,0,1-2.41-.936A2.978,2.978,0,0,1,1179.724-144.637Z" transform="translate(-1007.507 149.55)" fill="#fff" fill-rule="evenodd"/>
            <path id="Combined-Shape-3" d="M1193.07-125.143a10.884,10.884,0,0,1,.906-4.5,10.533,10.533,0,0,1,2.454-3.457,10.856,10.856,0,0,1,3.67-2.219,13.387,13.387,0,0,1,9.021,0,10.859,10.859,0,0,1,3.669,2.219,10.531,10.531,0,0,1,2.454,3.457,10.878,10.878,0,0,1,.906,4.5,10.878,10.878,0,0,1-.906,4.5,10.531,10.531,0,0,1-2.454,3.457,10.859,10.859,0,0,1-3.669,2.219,13.387,13.387,0,0,1-9.021,0,10.856,10.856,0,0,1-3.67-2.219,10.533,10.533,0,0,1-2.454-3.457A10.884,10.884,0,0,1,1193.07-125.143Zm5.306,0a6.686,6.686,0,0,0,.421,2.349,5.89,5.89,0,0,0,1.237,2A6.172,6.172,0,0,0,1202-119.4a6.781,6.781,0,0,0,5.218,0,6.17,6.17,0,0,0,1.967-1.391,5.9,5.9,0,0,0,1.238-2,6.772,6.772,0,0,0,0-4.7,5.88,5.88,0,0,0-1.238-2,6.172,6.172,0,0,0-1.967-1.392,6.781,6.781,0,0,0-5.218,0,6.163,6.163,0,0,0-1.966,1.391,5.876,5.876,0,0,0-1.238,2,6.684,6.684,0,0,0-.422,2.349Z" transform="translate(-1009.755 147.584)" fill="#fff" fill-rule="evenodd"/>
            <path id="Path-9" d="M1226.783-135.581h5.041v3.349h.088a7.343,7.343,0,0,1,2.3-2.719,6.887,6.887,0,0,1,4.2-1.152,8.432,8.432,0,0,1,3.6.7,6.807,6.807,0,0,1,2.41,1.827,6.878,6.878,0,0,1,1.326,2.609,11.8,11.8,0,0,1,.4,3.088v13.176h-5.3v-10.567q0-.869-.088-1.936a6.835,6.835,0,0,0-.465-2,3.758,3.758,0,0,0-1.171-1.566,3.4,3.4,0,0,0-2.168-.63,5.125,5.125,0,0,0-2.232.435,4.277,4.277,0,0,0-1.5,1.174,4.648,4.648,0,0,0-.862,1.7,7.423,7.423,0,0,0-.265,2v11.394h-5.306Z" transform="translate(-1015.436 147.584)" fill="#fff" fill-rule="evenodd"/>
          </g>
        </g>
      </g>
    </g>
    <g id="Innovation_Done_Right" data-name="Innovation Done Right" transform="translate(901.878 5715.713)">
      <path id="Path_2645" data-name="Path 2645" d="M1052.892-90.849h-1.4v-10.6h1.4Z" transform="translate(-1051.494 102.034)" fill="#fff"/>
      <path id="Path_2646" data-name="Path 2646" d="M1058.866-98.205l.043.99a2.871,2.871,0,0,1,2.36-1.136q2.5,0,2.52,2.818v5.206h-1.347V-95.54a1.813,1.813,0,0,0-.39-1.26,1.563,1.563,0,0,0-1.191-.407,1.942,1.942,0,0,0-1.15.349,2.368,2.368,0,0,0-.773.917v5.614h-1.347v-7.879Z" transform="translate(-1052.521 101.512)" fill="#fff"/>
      <path id="Path_2647" data-name="Path 2647" d="M1070.359-98.205l.043.99a2.872,2.872,0,0,1,2.36-1.136q2.5,0,2.52,2.818v5.206h-1.347V-95.54a1.813,1.813,0,0,0-.39-1.26,1.56,1.56,0,0,0-1.19-.407,1.943,1.943,0,0,0-1.151.349,2.368,2.368,0,0,0-.773.917v5.614h-1.347v-7.879Z" transform="translate(-1054.458 101.512)" fill="#fff"/>
      <path id="Path_2648" data-name="Path 2648" d="M1080.146-94.339a4.65,4.65,0,0,1,.455-2.083,3.392,3.392,0,0,1,1.267-1.427,3.445,3.445,0,0,1,1.853-.5,3.32,3.32,0,0,1,2.6,1.114,4.284,4.284,0,0,1,.994,2.964v.094a4.7,4.7,0,0,1-.441,2.065,3.346,3.346,0,0,1-1.26,1.424,3.5,3.5,0,0,1-1.883.509,3.313,3.313,0,0,1-2.6-1.114,4.262,4.262,0,0,1-.994-2.949Zm1.354.16a3.377,3.377,0,0,0,.609,2.105,1.948,1.948,0,0,0,1.627.793,1.934,1.934,0,0,0,1.631-.8,3.686,3.686,0,0,0,.6-2.253,3.363,3.363,0,0,0-.614-2.1,1.956,1.956,0,0,0-1.635-.8,1.933,1.933,0,0,0-1.608.793A3.658,3.658,0,0,0,1081.5-94.179Z" transform="translate(-1056.321 101.512)" fill="#fff"/>
      <path id="Path_2649" data-name="Path 2649" d="M1094.712-92.125l1.951-6.051h1.376l-2.826,7.879h-1.026l-2.855-7.879h1.376Z" transform="translate(-1058.205 101.482)" fill="#fff"/>
      <path id="Path_2650" data-name="Path 2650" d="M1107.24-90.327a2.815,2.815,0,0,1-.19-.83,3.006,3.006,0,0,1-2.243.975,2.783,2.783,0,0,1-1.912-.659,2.13,2.13,0,0,1-.747-1.671,2.228,2.228,0,0,1,.936-1.912,4.418,4.418,0,0,1,2.633-.681h1.311v-.619a1.512,1.512,0,0,0-.422-1.125,1.7,1.7,0,0,0-1.246-.418,1.961,1.961,0,0,0-1.208.363,1.072,1.072,0,0,0-.488.881h-1.355a1.856,1.856,0,0,1,.419-1.139,2.845,2.845,0,0,1,1.136-.871,3.817,3.817,0,0,1,1.576-.32,3.117,3.117,0,0,1,2.135.68,2.461,2.461,0,0,1,.8,1.875v3.626a4.42,4.42,0,0,0,.277,1.727v.116ZM1105-91.353a2.367,2.367,0,0,0,1.2-.328,1.98,1.98,0,0,0,.823-.851v-1.616h-1.056q-2.476,0-2.476,1.449a1.225,1.225,0,0,0,.422.99A1.624,1.624,0,0,0,1105-91.353Z" transform="translate(-1060.028 101.512)" fill="#fff"/>
      <path id="Path_2651" data-name="Path 2651" d="M1115.408-100.47v1.908h1.471v1.041h-1.471v4.892a1.1,1.1,0,0,0,.2.712.831.831,0,0,0,.67.236,3.255,3.255,0,0,0,.64-.086v1.085a3.93,3.93,0,0,1-1.034.145,1.681,1.681,0,0,1-1.362-.545,2.347,2.347,0,0,1-.458-1.551v-4.887h-1.435v-1.041h1.435v-1.908Z" transform="translate(-1061.793 101.869)" fill="#fff"/>
      <path id="Path_2652" data-name="Path 2652" d="M1121.237-100.848a.8.8,0,0,1,.2-.553.75.75,0,0,1,.593-.226.763.763,0,0,1,.6.226.8.8,0,0,1,.2.553.771.771,0,0,1-.2.546.777.777,0,0,1-.6.219.764.764,0,0,1-.593-.219A.773.773,0,0,1,1121.237-100.848Zm1.457,9.969h-1.347v-7.879h1.347Z" transform="translate(-1063.244 102.064)" fill="#fff"/>
      <path id="Path_2653" data-name="Path 2653" d="M1126.748-94.339a4.663,4.663,0,0,1,.455-2.083,3.4,3.4,0,0,1,1.267-1.427,3.449,3.449,0,0,1,1.854-.5,3.322,3.322,0,0,1,2.6,1.114,4.283,4.283,0,0,1,.994,2.964v.094a4.7,4.7,0,0,1-.441,2.065,3.351,3.351,0,0,1-1.26,1.424,3.492,3.492,0,0,1-1.883.509,3.313,3.313,0,0,1-2.6-1.114,4.266,4.266,0,0,1-.994-2.949Zm1.354.16a3.372,3.372,0,0,0,.608,2.105,1.949,1.949,0,0,0,1.627.793,1.933,1.933,0,0,0,1.632-.8,3.681,3.681,0,0,0,.6-2.253,3.363,3.363,0,0,0-.615-2.1,1.955,1.955,0,0,0-1.635-.8,1.936,1.936,0,0,0-1.61.793A3.664,3.664,0,0,0,1128.1-94.179Z" transform="translate(-1064.172 101.512)" fill="#fff"/>
      <path id="Path_2654" data-name="Path 2654" d="M1140.276-98.205l.043.99a2.872,2.872,0,0,1,2.36-1.136q2.5,0,2.52,2.818v5.206h-1.347V-95.54a1.813,1.813,0,0,0-.39-1.26,1.56,1.56,0,0,0-1.19-.407,1.944,1.944,0,0,0-1.151.349,2.37,2.37,0,0,0-.773.917v5.614H1139v-7.879Z" transform="translate(-1066.236 101.512)" fill="#fff"/>
      <path id="Path_2655" data-name="Path 2655" d="M1156.137-94.972a4.617,4.617,0,0,1,.859-2.917,2.717,2.717,0,0,1,2.25-1.1,2.732,2.732,0,0,1,2.192.947v-4.108h1.347v11.185h-1.237l-.066-.844a2.744,2.744,0,0,1-2.251.99A2.69,2.69,0,0,1,1157-91.943a4.664,4.664,0,0,1-.862-2.927Zm1.347.152a3.5,3.5,0,0,0,.553,2.1,1.789,1.789,0,0,0,1.529.757,1.966,1.966,0,0,0,1.872-1.15v-3.619a1.981,1.981,0,0,0-1.858-1.114,1.8,1.8,0,0,0-1.543.764A3.852,3.852,0,0,0,1157.484-94.82Z" transform="translate(-1069.123 102.152)" fill="#fff"/>
      <path id="Path_2656" data-name="Path 2656" d="M1167.813-94.339a4.663,4.663,0,0,1,.454-2.083,3.4,3.4,0,0,1,1.268-1.427,3.443,3.443,0,0,1,1.853-.5,3.322,3.322,0,0,1,2.6,1.114,4.284,4.284,0,0,1,.994,2.964v.094a4.687,4.687,0,0,1-.442,2.065,3.342,3.342,0,0,1-1.259,1.424,3.5,3.5,0,0,1-1.883.509,3.312,3.312,0,0,1-2.6-1.114,4.262,4.262,0,0,1-.994-2.949Zm1.354.16a3.372,3.372,0,0,0,.609,2.105,1.948,1.948,0,0,0,1.627.793,1.934,1.934,0,0,0,1.631-.8,3.686,3.686,0,0,0,.6-2.253,3.364,3.364,0,0,0-.615-2.1,1.953,1.953,0,0,0-1.635-.8,1.934,1.934,0,0,0-1.609.793A3.663,3.663,0,0,0,1169.167-94.179Z" transform="translate(-1071.091 101.512)" fill="#fff"/>
      <path id="Path_2657" data-name="Path 2657" d="M1181.34-98.205l.043.99a2.871,2.871,0,0,1,2.359-1.136q2.5,0,2.521,2.818v5.206h-1.348V-95.54a1.813,1.813,0,0,0-.389-1.26,1.561,1.561,0,0,0-1.191-.407,1.949,1.949,0,0,0-1.151.349,2.373,2.373,0,0,0-.771.917v5.614h-1.348v-7.879Z" transform="translate(-1073.154 101.512)" fill="#fff"/>
      <path id="Path_2658" data-name="Path 2658" d="M1194.758-90.181a3.439,3.439,0,0,1-2.606-1.052,3.9,3.9,0,0,1-1.005-2.814v-.248a4.717,4.717,0,0,1,.448-2.094,3.48,3.48,0,0,1,1.251-1.442,3.155,3.155,0,0,1,1.744-.521,2.948,2.948,0,0,1,2.388,1.012,4.377,4.377,0,0,1,.852,2.9v.561h-5.338a2.8,2.8,0,0,0,.681,1.883,2.138,2.138,0,0,0,1.656.717,2.339,2.339,0,0,0,1.208-.291,3.02,3.02,0,0,0,.867-.772l.823.641A3.309,3.309,0,0,1,1194.758-90.181Zm-.167-7.063a1.792,1.792,0,0,0-1.369.594,2.886,2.886,0,0,0-.685,1.664h3.946v-.1a2.553,2.553,0,0,0-.553-1.591A1.693,1.693,0,0,0,1194.591-97.244Z" transform="translate(-1075.022 101.512)" fill="#fff"/>
      <path id="Path_2659" data-name="Path 2659" d="M1212.5-97a4.032,4.032,0,0,0-.663-.052,1.773,1.773,0,0,0-1.8,1.129v5.592h-1.348v-7.879H1210l.022.91a2.1,2.1,0,0,1,1.878-1.055,1.4,1.4,0,0,1,.6.1Z" transform="translate(-1077.977 101.512)" fill="#fff"/>
      <path id="Path_2660" data-name="Path 2660" d="M1216.366-100.848a.8.8,0,0,1,.2-.553.754.754,0,0,1,.594-.226.762.762,0,0,1,.6.226.793.793,0,0,1,.2.553.768.768,0,0,1-.2.546.776.776,0,0,1-.6.219.768.768,0,0,1-.594-.219A.779.779,0,0,1,1216.366-100.848Zm1.456,9.969h-1.347v-7.879h1.347Z" transform="translate(-1079.27 102.064)" fill="#fff"/>
      <path id="Path_2661" data-name="Path 2661" d="M1221.921-94.331a4.635,4.635,0,0,1,.851-2.932,2.726,2.726,0,0,1,2.258-1.088,2.712,2.712,0,0,1,2.25,1.019l.065-.873h1.231v7.69a3.2,3.2,0,0,1-.906,2.41,3.35,3.35,0,0,1-2.436.881,4.058,4.058,0,0,1-1.668-.364,2.878,2.878,0,0,1-1.245-1l.7-.808a2.632,2.632,0,0,0,2.119,1.07,2.065,2.065,0,0,0,1.533-.553,2.119,2.119,0,0,0,.55-1.559v-.676a2.769,2.769,0,0,1-2.206.931,2.692,2.692,0,0,1-2.24-1.114A4.871,4.871,0,0,1,1221.921-94.331Zm1.355.152a3.536,3.536,0,0,0,.545,2.094,1.776,1.776,0,0,0,1.529.761,1.975,1.975,0,0,0,1.872-1.157v-3.6a2,2,0,0,0-1.857-1.128,1.791,1.791,0,0,0-1.537.764A3.853,3.853,0,0,0,1223.276-94.179Z" transform="translate(-1080.207 101.512)" fill="#fff"/>
      <path id="Path_2662" data-name="Path 2662" d="M1235.312-97.892a2.861,2.861,0,0,1,2.33-1.1q2.5,0,2.52,2.818v5.206h-1.347v-5.214a1.813,1.813,0,0,0-.39-1.26,1.559,1.559,0,0,0-1.19-.407,1.945,1.945,0,0,0-1.151.349,2.373,2.373,0,0,0-.772.917v5.614h-1.347v-11.185h1.347Z" transform="translate(-1082.235 102.152)" fill="#fff"/>
      <path id="Path_2663" data-name="Path 2663" d="M1247.074-100.47v1.908h1.47v1.041h-1.47v4.892a1.1,1.1,0,0,0,.2.712.829.829,0,0,0,.67.236,3.249,3.249,0,0,0,.64-.086v1.085a3.934,3.934,0,0,1-1.034.145,1.679,1.679,0,0,1-1.361-.545,2.348,2.348,0,0,1-.458-1.551v-4.887h-1.435v-1.041h1.435v-1.908Z" transform="translate(-1083.975 101.869)" fill="#fff"/>
    </g>
  </g>
</svg>
