<svg xmlns="http://www.w3.org/2000/svg" width="35.987" height="24" viewBox="0 0 35.987 24">
  <g id="Icon_simple-youtube" data-name="Icon simple-youtube" transform="translate(0 0)">
    <path id="Icon_simple-youtube-2" data-name="Icon simple-youtube" d="M35.243,9.13a4.412,4.412,0,0,0-3.132-2.989c-2.805-.717-14.094-.717-14.094-.717S6.756,5.41,3.923,6.141A4.412,4.412,0,0,0,.791,9.13a42.74,42.74,0,0,0-.783,8.309,42.74,42.74,0,0,0,.783,8.278,4.412,4.412,0,0,0,3.132,2.989c2.8.719,14.094.719,14.094.719s11.259,0,14.094-.719a4.412,4.412,0,0,0,3.132-2.989,42.736,42.736,0,0,0,.75-8.278,42.735,42.735,0,0,0-.75-8.309ZM14.413,22.579v-10.3l9.4,5.156Z" transform="translate(-0.007 -5.424)"/>
  </g>
</svg>
